<?xml version="1.0" encoding="utf-8"?>
<!-- Generator: Adobe Illustrator 25.0.0, SVG Export Plug-In . SVG Version: 6.00 Build 0)  -->
<svg version="1.1" id="Layer_1" xmlns="http://www.w3.org/2000/svg" xmlns:xlink="http://www.w3.org/1999/xlink" x="0px" y="0px"
	 viewBox="0 0 140 53.8" style="enable-background:new 0 0 140 53.8;" xml:space="preserve">
<style type="text/css">
	.st0{fill:#F39200;}
	.st1{fill:#04162d;}
	.st2{fill:#FFFFFF;}
	.st3{fill:#F29201;}
	.st4{fill:#5B5B5B;}
</style>
<g>
	<path class="st0" d="M135,53.8H4.9c-2.7,0-4.9-2.9-4.9-6.4V6.3C0,2.8,2.2,0,4.9,0H135c2.9,0.2,5.1,3,5,6.4v41.1
		C140.1,50.8,137.9,53.6,135,53.8L135,53.8z"/>
	<path class="st1" d="M139,47.4c0.1,2.7-1.7,5-4,5.2H4.9c-2.3-0.1-4.1-2.4-4-5.2V6.3c-0.1-2.7,1.7-5,4-5.2H135
		c2.3,0.2,4.1,2.5,4,5.2L139,47.4L139,47.4z"/>
</g>
<g>
	<g>
		<path class="st2" d="M72.7,33.2c0,0.3,0.1,0.4,0.4,0.4h0.4v2.6h-0.4c-0.1,0-0.3,0-0.4,0c0,0.4-0.1,0.7-0.3,1
			c-0.1,0.4-0.4,0.7-0.7,1c-0.3,0.3-0.5,0.5-0.9,0.6c-0.3,0.1-0.7,0.2-1,0.3c-0.3,0.1-0.7,0.1-1,0.1h-0.7c-0.6,0-1.1-0.1-1.7-0.2
			c-0.4-0.1-0.8-0.4-1.1-0.7c-0.3-0.3-0.5-0.6-0.7-1c-0.2-0.4-0.3-0.8-0.3-1.2c0-0.3,0-0.5,0-0.8s0-0.2,0-0.3c0.1-1,0.4-2,0.8-2.9
			l2.1,1c-0.3,0.6-0.5,1.3-0.6,2.1l0,0c0,0.1,0,0.1,0,0.2s0,0.2,0,0.3c0,0.1,0.1,0.3,0.1,0.4c0.1,0.2,0.3,0.3,0.5,0.4
			c0.3,0.1,0.6,0.2,0.9,0.2h0.7c0.3,0,0.6,0,0.9-0.1c0.2-0.1,0.3-0.1,0.5-0.3c0.1-0.1,0.1-0.2,0.2-0.3c0-0.1,0-0.2,0-0.3v-3.8h2.3
			L72.7,33.2z M68.6,32.7l-1.3-1.3l1.3-1.3l1.3,1.3L68.6,32.7z"/>
		<path class="st2" d="M84.2,36.3c-0.6,0-1,0-1.3,0c-0.2,0-0.4,0-0.6-0.1c-0.2-0.1-0.3-0.2-0.4-0.3c-0.3,0.2-0.7,0.4-1.1,0.4
			c-0.1,0-0.3,0-0.4,0.1c-0.6,0.1-1.2-0.1-1.6-0.5c-0.2,0.1-0.4,0.3-0.7,0.4c-0.2,0.1-0.5,0.1-0.8,0.1c-0.3,0-0.7,0-1-0.1
			c-0.2-0.1-0.5-0.2-0.7-0.3l-0.1,0.1c-0.1,0.1-0.2,0.2-0.3,0.3c-0.2,0.1-0.4,0.1-0.6,0.1c-0.3,0-0.7,0-1.4,0v-2.6h0.6
			c0.2,0,0.4,0,0.5-0.1c0.1-0.1,0.2-0.2,0.1-0.3v-1.3h2.3v1.3c0,0.1,0,0.2,0.1,0.3c0.1,0.1,0.2,0.1,0.3,0.1c0.3,0,0.4-0.1,0.4-0.5
			v-1.4h2.3v1.3c0,0.1,0,0.3,0.1,0.3c0.1,0.1,0.2,0.1,0.3,0.1c0.1,0,0.2,0,0.3-0.1c0.1-0.1,0.1-0.2,0.1-0.3v-1.3H83v1.3
			c0,0.1,0,0.3,0.1,0.3c0.2,0.1,0.3,0.1,0.5,0.1h0.5L84.2,36.3z M77.4,31l-1.2-1.2l1.3-1.3l1.3,1.3L77.4,31z M78.8,29.2L77.6,28
			l1.1-1.1l1.1,1.1L78.8,29.2z M80.1,31l-1.3-1.2l1.3-1.3l1.2,1.3L80.1,31z"/>
		<path class="st2" d="M90,36.3h-0.8c-0.6,0-1.1-0.2-1.6-0.5c-0.2,0.2-0.5,0.3-0.7,0.4c-0.3,0.1-0.7,0.1-1,0.1h-1.9v-2.6H86
			c0.1,0,0.3,0,0.4-0.1c0.1-0.1,0.1-0.1,0.1-0.2v-1.5h2.3v1.5c0,0.1,0,0.1,0.1,0.2c0,0,0.1,0.1,0.3,0.1H90L90,36.3z M85.5,39.4
			l-1.2-1.2l1.2-1.2l1.3,1.2L85.5,39.4z M88.1,39.4l-1.2-1.2l1.2-1.2l1.3,1.2L88.1,39.4z"/>
		<path class="st2" d="M97.1,36.3c-0.4,0-0.8,0-1.2-0.1c-0.6-0.1-1.2-0.4-1.7-0.9c-0.2,0.2-0.5,0.4-0.8,0.6c-0.5,0.2-1,0.4-1.5,0.4
			h-2.2v-2.6h2h0.5c0.1,0,0.3,0,0.4-0.1c0.1,0,0.2-0.1,0.2-0.1l-0.2-0.3c-0.1-0.2-0.3-0.4-0.5-0.7l-1.4-1.6l0.4-1.7l4.9-2.4l1,2.1
			l-3.6,1.7l0.3,0.4l0.6,0.8c0.2,0.3,0.4,0.6,0.6,0.9c0.2,0.3,0.4,0.5,0.6,0.8c0.1,0.1,0.3,0.2,0.5,0.3c0.3,0,0.5,0,0.8,0L97.1,36.3
			z"/>
		<path class="st2" d="M103,36.3h-0.9c-0.6,0-1.1-0.2-1.6-0.5c-0.2,0.2-0.5,0.3-0.7,0.4c-0.3,0.1-0.7,0.1-1,0.1h-1.9v-2.6h2.1
			c0.1,0,0.2,0,0.4-0.1c0.1,0,0.1-0.1,0.1-0.2v-1.5h2.3v1.5c0,0.1,0,0.1,0.1,0.2c0.1,0.1,0.2,0.1,0.3,0.1h0.9L103,36.3z M98.5,39.4
			l-1.3-1.2l1.3-1.3l1.2,1.3L98.5,39.4z M101.1,39.4l-1.2-1.2l1.2-1.3l1.3,1.3L101.1,39.4z"/>
		<path class="st2" d="M106.6,36.3c-0.6,0-1.2-0.2-1.7-0.5c-0.5,0.3-1.1,0.5-1.7,0.5h-0.4v-2.6h0.4c0.2,0,0.3,0,0.5-0.1
			c0.1-0.1,0.2-0.2,0.1-0.4v-5.4h2.3v5.5c0,0.1,0,0.1,0,0.2c0,0.1,0.1,0.1,0.1,0.1c0.1,0,0.2,0.1,0.3,0.1L106.6,36.3z"/>
		<path class="st2" d="M108.6,36.3h-2.5v-2.6h2.5c0.1,0,0.2,0,0.3-0.1c0.1,0,0.1-0.1,0.1-0.2c0-0.1,0-0.1,0-0.2l-0.3-1.5l2.2-0.7
			l0.3,1.7c0.1,0.3,0.1,0.5,0.1,0.8c0,0.4-0.1,0.7-0.2,1.1c-0.1,0.2-0.2,0.4-0.3,0.6c-0.3,0.3-0.6,0.6-1,0.8
			C109.4,36.2,109,36.3,108.6,36.3z M107.8,39.4l-1.2-1.3l1.2-1.2l1.2,1.2L107.8,39.4z M109.1,41l-1.1-1.1l1.1-1.1l1.1,1.1L109.1,41
			z M110.4,39.4l-1.2-1.3l1.2-1.2l1.3,1.2L110.4,39.4z"/>
		<path class="st2" d="M114.6,36.3h-2.3v-8.5h2.3V36.3z"/>
		<path class="st2" d="M120.6,36.3h-1.3c-0.3,0-0.5,0-0.8-0.1c-0.6-0.1-1.2-0.4-1.5-0.9c-0.3-0.6-0.4-1.2-0.4-1.8c0-0.2,0-0.3,0-0.5
			c0.1-0.5,0.2-1,0.3-1.5l0,0l0,0l2.2,0.7l0,0c0,0,0,0.1-0.1,0.3c-0.1,0.2-0.1,0.5-0.2,0.8c0,0.1,0,0.2,0,0.3l0,0
			c0,0.1,0,0.1,0.1,0.2c0.1,0.1,0.2,0.1,0.3,0.1h5.7c0.2,0,0.3,0,0.3-0.1c0,0,0-0.1,0-0.1c0-0.1,0-0.1,0-0.2l-0.2-1.2l2.3-0.7
			c0,0.1,0,0.1,0,0.2c0.1,0.3,0.1,0.8,0.2,1.2c0.1,0.3,0.1,0.5,0.1,0.8c0,0.1,0,0.3,0,0.4c0,0.5-0.2,1-0.5,1.4
			c-0.3,0.3-0.7,0.6-1.1,0.7c-0.4,0.1-0.8,0.2-1.1,0.2L120.6,36.3z M122.1,39.3l-1.3-1.3l1.3-1.3l1.3,1.3L122.1,39.3z"/>
		<path class="st2" d="M129.5,36.7c0.5,0,0.9,0,1.2,0c0.2,0,0.5-0.1,0.7-0.1c0.1,0,0.2-0.1,0.2-0.3h-0.5c-0.5,0-0.9-0.1-1.4-0.3
			c-0.4-0.2-0.7-0.5-1-0.9c-0.3-0.4-0.4-0.9-0.4-1.5c0-0.5,0.1-1.1,0.3-1.6c0.2-0.4,0.4-0.7,0.7-1c0.3-0.2,0.6-0.4,0.9-0.5
			c0.3-0.1,0.6-0.1,0.9-0.1c0.8,0,1.6,0.3,2.1,0.9c0.5,0.6,0.8,1.4,0.8,2.2v2.1c0,0.5-0.1,0.9-0.2,1.4c-0.1,0.4-0.3,0.7-0.6,1
			c-0.2,0.2-0.4,0.5-0.7,0.7c-0.2,0.1-0.4,0.2-0.6,0.3c-0.3,0.1-0.7,0.2-1,0.3c-0.5,0.1-1,0.1-1.5,0.1h-0.6v-2.6L129.5,36.7z
			 M130.9,33.7h0.9v-0.6c0-0.2-0.1-0.3-0.2-0.4c-0.1-0.1-0.3-0.2-0.5-0.2c-0.2,0-0.3,0.1-0.5,0.2c-0.1,0.1-0.2,0.3-0.2,0.4
			c0,0.1,0,0.2,0,0.3c0,0.1,0.1,0.1,0.1,0.2C130.7,33.7,130.8,33.7,130.9,33.7z"/>
		<path class="st2" d="M81.3,18.2h-0.2c-0.2,0-0.5,0-0.7-0.1C80.2,18,80,18,79.8,17.9c-0.2-0.1-0.4-0.2-0.5-0.4
			c-0.1-0.2-0.3-0.3-0.3-0.5c-0.1,0.1-0.2,0.3-0.3,0.4c-0.3,0.2-0.7,0.4-1,0.4h-0.2c-0.2,0-0.3,0-0.5-0.1c-0.2,0-0.3-0.1-0.5-0.2
			c-0.2-0.1-0.3-0.2-0.4-0.4c-0.1-0.2-0.2-0.3-0.3-0.5c-0.1-0.2-0.1-0.4-0.1-0.7c0-0.3,0.1-0.6,0.2-0.9c0.1-0.3,0.3-0.5,0.5-0.7
			c0.2-0.2,0.5-0.4,0.8-0.5c0.3-0.1,0.6-0.3,0.9-0.4c0-0.1,0-0.2,0-0.2c0-0.1,0-0.1,0-0.2l0.9-0.2l0.8,3.3c0,0.2,0.1,0.4,0.3,0.5
			c0.1,0.1,0.2,0.2,0.4,0.3c0.1,0.1,0.3,0.1,0.4,0.1c0.1,0,0.3,0,0.4,0h0.2L81.3,18.2z M78.5,15.9c0-0.1,0-0.1,0-0.2
			c0-0.1,0-0.1,0-0.2c0-0.1,0-0.2-0.1-0.3c-0.1-0.1-0.1-0.3-0.1-0.4c0-0.1-0.1-0.2-0.1-0.4c-0.4,0.1-0.9,0.3-1.2,0.6
			c-0.3,0.2-0.4,0.5-0.4,0.9c0,0.1,0,0.3,0.1,0.4c0.1,0.1,0.2,0.2,0.3,0.3c0.1,0.1,0.3,0.1,0.4,0.1l0,0c0.1,0,0.3,0,0.4-0.1
			c0.2-0.1,0.3-0.2,0.4-0.3C78.3,16.2,78.4,16.1,78.5,15.9z"/>
		<path class="st2" d="M86.9,16.8c0,0.1,0.1,0.2,0.2,0.2c0.1,0,0.1,0.1,0.2,0.1c0.1,0,0.1,0,0.2,0h1.1v1h-0.9c-0.2,0-0.5,0-0.7-0.1
			c-0.2-0.1-0.4-0.2-0.6-0.3l0,0c-0.2-0.1-0.3-0.3-0.4-0.5H86c-0.3,0.2-0.7,0.3-1,0.4c-0.4,0.1-0.8,0.2-1.2,0.3
			c-0.4,0.1-0.8,0.1-1.2,0.1h-1.4v-0.9h1.3c0.2,0,0.5,0,0.7,0c0.2,0,0.5-0.1,0.7-0.1c0.2-0.1,0.5-0.1,0.7-0.2
			c0.2-0.1,0.4-0.1,0.7-0.2c0.2-0.1,0.4-0.2,0.6-0.2l0.5-0.3L84,15.2c-0.1,0-0.2-0.1-0.4-0.1c-0.1,0-0.2,0-0.3,0.1
			c-0.1,0-0.2,0.1-0.2,0.2c-0.1,0.1-0.1,0.2-0.2,0.3L82,15.5c0.1-0.2,0.2-0.4,0.3-0.6c0.1-0.2,0.2-0.3,0.4-0.5
			c0.2-0.1,0.4-0.2,0.6-0.3h0.2c0.2,0,0.4,0,0.5,0.1l0.5,0.2l0.4,0.1l0.4,0.2l0.5,0.2l0.7,0.3l0.9,0.3l0.1,0.9l-0.2,0.2
			C87.2,16.6,87.1,16.7,86.9,16.8z M82.5,12.2l0.8-0.8l0.8,0.8L83.3,13L82.5,12.2z"/>
		<path class="st2" d="M88.2,17.1h0.6c0.2,0,0.3,0,0.5-0.1c0.1,0,0.2-0.1,0.3-0.1c0.1-0.1,0.1-0.2,0.1-0.2c0-0.1,0-0.2,0-0.3v-1.4h1
			v1.4c0,0.2,0.1,0.4,0.2,0.6c0.2,0.1,0.4,0.2,0.6,0.2c0.1,0,0.1,0,0.2,0c0.1,0,0.2-0.1,0.2-0.1c0.1-0.1,0.1-0.1,0.2-0.2
			c0.1-0.1,0.1-0.3,0.1-0.4v-1.5h1v1.4c0,0.2,0,0.4,0.2,0.6c0.2,0.1,0.4,0.2,0.6,0.2c0.1,0,0.2,0,0.2,0c0.1,0,0.2-0.1,0.2-0.1
			c0.1-0.1,0.1-0.1,0.2-0.2c0-0.1,0.1-0.2,0.1-0.3v-1.4h1v1.4c0,0.2,0.1,0.4,0.2,0.6c0.2,0.1,0.5,0.2,0.7,0.2h0.5v1h-0.5
			c-0.3,0-0.6,0-0.9-0.1c-0.2-0.1-0.4-0.2-0.6-0.4C95.2,17.8,95,18,94.8,18c-0.2,0.1-0.4,0.1-0.7,0.1c-0.3,0-0.5,0-0.8-0.1
			c-0.2-0.1-0.4-0.2-0.6-0.4c-0.2,0.1-0.3,0.3-0.5,0.3c-0.2,0.1-0.4,0.1-0.6,0.1l0,0c-0.3,0-0.5,0-0.7-0.1c-0.2-0.1-0.4-0.2-0.6-0.3
			c-0.2,0.2-0.4,0.3-0.6,0.3c-0.3,0.1-0.6,0.1-0.9,0.1h-0.6L88.2,17.1z"/>
		<path class="st2" d="M99.7,14.3c0,0,0,0.1,0,0.1c0,0.1,0,0.2,0.1,0.3c0.1,0.1,0.1,0.3,0.1,0.4c0,0.1,0.1,0.3,0.1,0.4
			c0,0.1,0,0.3,0.1,0.4c0,0.1,0,0.2,0,0.4c0,0.3,0,0.5-0.2,0.8c-0.1,0.2-0.2,0.4-0.4,0.6c-0.2,0.1-0.3,0.3-0.6,0.3
			c-0.2,0.1-0.4,0.1-0.6,0.1H97v-1h1.3h0.2c0.1,0,0.2,0,0.2-0.1c0.1-0.1,0.2-0.1,0.2-0.2c0.1-0.1,0.1-0.3,0.1-0.4c0-0.1,0-0.2,0-0.3
			c0-0.1,0-0.2,0-0.3c0-0.1,0-0.2-0.1-0.4l-0.1-0.3c0-0.1,0-0.2-0.1-0.3s0-0.2-0.1-0.2L99.7,14.3z M98.1,12.4l0.8-0.8l0.8,0.8
			l-0.8,0.8L98.1,12.4z"/>
		<path class="st2" d="M113.7,17.1v1h-0.3H113c-0.1,0-0.2,0-0.3-0.1c-0.1,0-0.2-0.1-0.3-0.1c-0.1-0.1-0.2-0.1-0.3-0.2
			c-0.4,0.3-0.9,0.5-1.4,0.5h-5c-0.4,0-0.9-0.2-1.2-0.4c-0.1-0.1-0.1-0.1-0.2-0.2c-0.1-0.1-0.1-0.2-0.2-0.3
			c-0.1-0.1-0.1-0.3-0.1-0.4c0-0.2,0-0.3,0-0.5c0-0.2,0-0.4,0-0.5l0.1-0.5c0-0.2,0.1-0.3,0.1-0.4c0-0.1,0-0.2,0.1-0.3l0.5,0.2
			l0.5,0.2c0,0.1-0.1,0.2-0.1,0.3c0,0.1-0.1,0.2-0.1,0.4L105,16c0,0.1,0,0.2,0,0.4c0,0.2,0,0.3,0.1,0.4c0.1,0.2,0.3,0.3,0.5,0.3h0.2
			h4.9c0.2,0,0.4,0,0.5-0.1c0.1,0,0.2-0.1,0.3-0.2c0.1-0.1,0.1-0.1,0.1-0.2c0-0.1,0-0.1,0-0.2v-1.5h1v1.5c0,0.1,0,0.3,0.1,0.4
			c0.1,0.1,0.1,0.1,0.2,0.2c0.1,0,0.2,0.1,0.3,0.1h0.2L113.7,17.1z M107.5,14.5l-0.7-0.7l0.7-0.8l0.8,0.8L107.5,14.5z M109.3,14.5
			l-0.7-0.7l0.7-0.8l0.8,0.8L109.3,14.5z"/>
		<path class="st2" d="M113.5,18.2v-1h1.9c0.2,0,0.5,0,0.7-0.1c0.2,0,0.3-0.1,0.5-0.1c0.1,0,0.2-0.1,0.2-0.2c0-0.1,0.1-0.1,0.1-0.2
			h-0.6c-0.3,0-0.6,0-0.8-0.1c-0.2,0-0.5-0.1-0.7-0.3c-0.2-0.1-0.3-0.3-0.4-0.5c-0.1-0.2-0.2-0.5-0.2-0.8c0-0.2,0-0.5,0.1-0.7
			c0.2-0.4,0.5-0.8,1-1c0.2-0.1,0.4-0.1,0.6-0.1h0.1c0.2,0,0.4,0.1,0.6,0.1c0.2,0.1,0.3,0.2,0.5,0.3c0.1,0.1,0.3,0.3,0.3,0.5
			c0.1,0.2,0.2,0.4,0.2,0.5c0.1,0.2,0.1,0.4,0.1,0.6c0,0.2,0,0.4,0,0.6v0.7c0,0.2,0,0.4-0.1,0.6c-0.1,0.2-0.2,0.3-0.3,0.5
			c-0.1,0.1-0.3,0.3-0.4,0.3c-0.2,0.1-0.3,0.2-0.5,0.2c-0.2,0.1-0.4,0.1-0.6,0.1c-0.2,0-0.4,0-0.6,0L113.5,18.2z M116.1,14H116
			c-0.1,0-0.2,0-0.3,0c-0.1,0-0.2,0.1-0.3,0.1c-0.1,0.1-0.2,0.2-0.2,0.3c0,0.1-0.1,0.3-0.1,0.4c0,0.1,0,0.3,0.1,0.4
			c0.1,0.1,0.2,0.2,0.3,0.2c0.1,0.1,0.2,0.1,0.4,0.1h0.4h0.6c0-0.2,0-0.3,0-0.5c0-0.2,0-0.3-0.1-0.5c0-0.1-0.1-0.3-0.2-0.4
			C116.5,14.1,116.3,14,116.1,14z M115.3,11.2l0.8-0.8l0.8,0.8l-0.8,0.8L115.3,11.2z"/>
		<path class="st2" d="M121.3,18.2c-0.3,0-0.5,0-0.8-0.1c-0.2,0-0.4-0.1-0.6-0.2c-0.1-0.1-0.3-0.2-0.4-0.3c-0.1-0.1-0.2-0.3-0.2-0.4
			c-0.1-0.2-0.1-0.4-0.1-0.6c0-0.2,0-0.4,0-0.7v-4.5h1v4.5c0,0.2,0,0.4,0,0.6c0,0.1,0.1,0.3,0.1,0.4c0.1,0.1,0.2,0.2,0.3,0.2
			c0.2,0,0.4,0,0.6,0L121.3,18.2z"/>
		<path class="st2" d="M124.6,14.3c0,0,0,0.1,0,0.1c0,0.1,0,0.2,0.1,0.3c0.1,0.1,0.1,0.3,0.1,0.4l0.1,0.4c0,0.1,0,0.3,0.1,0.4
			c0.1,0.1,0,0.3,0,0.4c0,0.3,0,0.5-0.1,0.8c-0.1,0.2-0.2,0.4-0.4,0.6c-0.2,0.1-0.3,0.3-0.6,0.3c-0.2,0.1-0.4,0.1-0.6,0.1h-2.1v-1
			h2.1h0.2c0.1,0,0.2,0,0.2-0.1c0.1-0.1,0.2-0.1,0.2-0.2c0.1-0.1,0.1-0.3,0.1-0.4c0-0.1,0-0.2,0-0.3s0-0.2,0-0.3
			c0-0.1,0-0.2-0.1-0.4c-0.1-0.1-0.1-0.2-0.1-0.3c0-0.1,0-0.2-0.1-0.3c0-0.1,0-0.1-0.1-0.2L124.6,14.3z M122.2,20.6l-0.7-0.7
			l0.7-0.8l0.8,0.8L122.2,20.6z M124,20.6l-0.7-0.7l0.7-0.8l0.8,0.8L124,20.6z"/>
		<path class="st2" d="M128.9,17.9c0,0.4-0.1,0.8-0.2,1.1c-0.1,0.3-0.3,0.6-0.6,0.9c-0.3,0.2-0.5,0.4-0.9,0.5
			c-0.4,0.1-0.8,0.2-1.2,0.2h-0.6v-1h0.6c0.3,0,0.5,0,0.8-0.1c0.2-0.1,0.4-0.2,0.6-0.3c0.2-0.2,0.3-0.3,0.3-0.6
			c0.1-0.3,0.1-0.6,0.1-0.9v-2.9h1L128.9,17.9z"/>
		<path class="st2" d="M131.8,18.2c-0.2,0-0.4,0-0.6,0h-0.3c-0.1,0-0.2,0-0.3-0.1l-0.3-0.1c-0.1,0-0.2-0.1-0.3-0.1l-0.4-0.3l0.5-0.9
			l0.4,0.2c0.1,0.1,0.3,0.1,0.4,0.2c0.2,0,0.3,0.1,0.5,0.1h0.4h0.2c0.1,0,0.3,0,0.4,0c0.2,0,0.3-0.1,0.4-0.1
			c0.1-0.1,0.2-0.1,0.2-0.1c0,0,0,0,0-0.1c0-0.1,0-0.1,0-0.2c-0.1-0.1-0.1-0.3-0.2-0.4l-0.7-1.1l-0.4-0.7l-0.2-0.3l-0.1-0.1
			l-0.3-0.4l0.9-0.6l0.3,0.4l0.1,0.1l0.2,0.3l0.4,0.7c0.2,0.3,0.4,0.6,0.7,1.1c0.2,0.2,0.3,0.5,0.4,0.8c0,0.1,0,0.2,0,0.3
			c0,0.2,0,0.3-0.1,0.5c-0.1,0.3-0.3,0.5-0.6,0.6c-0.3,0.1-0.6,0.2-0.9,0.3c-0.1,0-0.2,0-0.4,0L131.8,18.2z"/>
	</g>
	<g>
		<path class="st3" d="M48.8,15.6l-1.3,3.2C45.3,24.4,43,30,40.8,35.6c0,0.2-0.2,0.2-0.3,0.2c-1.6,0-3.2,0-4.9,0
			c-0.1,0-0.3-0.1-0.3-0.2l-3.5-11.2c0-0.1-0.1-0.2-0.1-0.2c-0.2,0.7-0.4,1.3-0.7,2l-3.1,9.5c-0.1,0.2-0.1,0.2-0.3,0.2
			c-1.6,0-3.3,0-4.9,0c-0.1,0-0.2-0.1-0.3-0.2c-0.9-1.5-1.7-3-2.6-4.4c-0.1-0.1-0.1-0.2,0-0.3l2.6-8c0-0.1,0-0.1,0.1-0.2l3,5.9
			c0.1-0.3,0.2-0.6,0.3-0.8l3.9-12c0-0.1,0-0.1,0.1-0.2h4.2c0.1,0.1,0.1,0.1,0.1,0.2c0.6,1.9,1.1,3.7,1.7,5.6l1.3,4.2l0.8,2.6
			c0,0.1,0,0.1,0.1,0.2c0.2-0.4,0.3-0.8,0.5-1.1c1.4-3.3,2.8-6.7,4.3-10c0.2-0.5,0.4-1,0.6-1.5c0-0.1,0.1-0.1,0.1-0.2L48.8,15.6z"/>
		<path class="st4" d="M14.9,15.6c-0.1,0.1-0.2,0.1-0.3,0H14.9z"/>
		<path class="st2" d="M59.7,35.9h-5.4c-0.2,0-0.2,0-0.3-0.2c-0.4-1.1-0.8-2.2-1.2-3.3c0-0.1-0.1-0.2-0.3-0.2h-6.8
			c-0.2,0-0.2,0-0.2-0.2c0.5-1.2,0.9-2.3,1.4-3.5c0-0.1,0.2-0.2,0.3-0.2h4.3c-0.2-0.5-0.4-1-0.6-1.6l-1.5-4.2c0-0.1,0-0.2,0-0.3
			c0.9-2.1,1.7-4.3,2.6-6.4l0.1-0.1L59.7,35.9z"/>
		<path class="st2" d="M20.2,18.3c-1-1.4-2.5-2.3-4.2-2.5c-0.3,0-0.5-0.1-0.8-0.1h-0.3c-0.1,0-0.2,0-0.3,0H6.2c-0.2,0-0.2,0-0.2,0.2
			v20c1.6,0,3.3,0,4.9,0c0.2,0,0.3-0.1,0.3-0.3c0-2.1,0-4.3,0-6.4c0-0.2,0-0.2,0.2-0.2c1,0,2.1,0,3.1,0c0.8,0,1.7-0.1,2.5-0.3
			c0.2,0,0.3-0.1,0.3-0.3c1-3.2,2.1-6.4,3.1-9.6C20.4,18.6,20.3,18.4,20.2,18.3z M15.6,24.1c-0.4,0.5-0.9,0.8-1.5,0.8
			c-0.7,0.1-1.5,0.1-2.3,0.1c-0.2,0-0.4,0-0.6,0S11,25,11,24.8c0-0.8,0-1.7,0-2.5c0-0.8,0-1.7,0-2.5c0-0.2,0-0.2,0.2-0.2
			c0.9,0,1.7,0,2.6,0c1.3,0,2.4,1.1,2.3,2.5c0,0,0,0,0,0.1C16.2,22.9,16,23.6,15.6,24.1z"/>
	</g>
</g>
</svg>
