<svg id="Layer_1" data-name="Layer 1" xmlns="http://www.w3.org/2000/svg" viewBox="0 0 139.95 53.78"><defs><style>.cls-1{fill:#f39200;}.cls-2{fill:#04162d;}.cls-3{fill:#fff;}</style></defs><path class="cls-1" d="M135,53.78H4.9c-2.7,0-4.9-2.86-4.9-6.36V6.35C0,2.84,2.2,0,4.9,0H135c2.7,0,5,2.85,5,6.36V47.42c0,3.5-2.28,6.36-5,6.36Z"/><path class="cls-2" d="M138.94,47.42c0,2.85-1.77,5.15-4,5.15H4.9c-2.19,0-4-2.3-4-5.15V6.35c0-2.85,1.79-5.16,4-5.16H135c2.2,0,4,2.31,4,5.16V47.42Z"/><path class="cls-3" d="M62.76,16.7a2.31,2.31,0,0,1-.8-.11,1,1,0,0,1-.52-.39,1.32,1.32,0,0,1-.3.28,1.37,1.37,0,0,1-.32.16,1.67,1.67,0,0,1-.3.08h-.24a2.11,2.11,0,0,1-.67-.14c-.26-.1-.53-.22-.83-.36l-.9-.46c-.31-.17-.61-.32-.91-.46v4.62h-1V14.81l1.1-.67.87.43c0-.19.08-.39.13-.58a5.05,5.05,0,0,1,.18-.55,3.67,3.67,0,0,1,.26-.48,1.67,1.67,0,0,1,.36-.39,1.43,1.43,0,0,1,.47-.26,2,2,0,0,1,.57-.08h0a1.9,1.9,0,0,1,.85.19,1.84,1.84,0,0,1,.63.51,2,2,0,0,1,.38.73,2.82,2.82,0,0,1,.13.87v.17a.76.76,0,0,1,0,.15.61.61,0,0,0,.12.38.77.77,0,0,0,.25.23.89.89,0,0,0,.29.12l.22,0H63V16.7Zm-2.48-1.06h.15a.43.43,0,0,0,.21-.11.74.74,0,0,0,.19-.33,2.18,2.18,0,0,0,.08-.66,1.1,1.1,0,0,0,0-.16,1.4,1.4,0,0,0-.06-.24,1.9,1.9,0,0,0-.1-.28,1.51,1.51,0,0,0-.18-.26,1.31,1.31,0,0,0-.27-.19.87.87,0,0,0-.37-.07,1.14,1.14,0,0,0-.33.05.7.7,0,0,0-.29.24,1.72,1.72,0,0,0-.24.54,8.21,8.21,0,0,0-.21.94l.41.21.39.17.35.12A1,1,0,0,0,60.28,15.64Z"/><path class="cls-3" d="M68.29,15.61V16.7h-.8a2.43,2.43,0,0,1-.79-.12,1.37,1.37,0,0,1-.58-.36,2.08,2.08,0,0,1-.66.36,2.9,2.9,0,0,1-.87.12H62.78V15.61h1.81a1.48,1.48,0,0,0,.52-.07.76.76,0,0,0,.3-.16.46.46,0,0,0,.13-.22.83.83,0,0,0,0-.22v-1.7h1.09V14.9a.65.65,0,0,0,.06.29.43.43,0,0,0,.13.19.52.52,0,0,0,.17.13l.19.06.17,0h.91ZM64.2,19.37l-.8-.8.79-.81.81.81Zm1.9,0-.79-.8.78-.81.81.81Z"/><path class="cls-3" d="M71,12.3a1.92,1.92,0,0,1,.81.17,1.7,1.7,0,0,1,.59.43,1.75,1.75,0,0,1,.38.61,1.89,1.89,0,0,1,.13.7,2.13,2.13,0,0,1-.12.76,2.18,2.18,0,0,1-.36.62h1.37V16.7h-.42c-.22,0-.44,0-.66,0s-.44,0-.65-.06a5.24,5.24,0,0,1-.61-.09,4.24,4.24,0,0,1-.5-.11,8,8,0,0,1-1,.2,8.41,8.41,0,0,1-1.29.08h-.57V15.61h1.39a1.91,1.91,0,0,1-.22-.3,1.37,1.37,0,0,1-.16-.32,2,2,0,0,1-.1-.35,2.63,2.63,0,0,1,0-.41,1.69,1.69,0,0,1,.16-.73,2,2,0,0,1,.44-.61,2.06,2.06,0,0,1,.65-.41A1.89,1.89,0,0,1,71,12.3Zm-1.12-1.06-.79-.8.77-.82.81.82Zm.11,3v.06a.86.86,0,0,0,.07.36,1.13,1.13,0,0,0,.19.31,1.5,1.5,0,0,0,.31.24,2.54,2.54,0,0,0,.41.18,2.64,2.64,0,0,0,.38-.18,1,1,0,0,0,.3-.24.87.87,0,0,0,.2-.32,1.09,1.09,0,0,0,.07-.42.52.52,0,0,0-.08-.28,1.2,1.2,0,0,0-.5-.46A.8.8,0,0,0,71,13.4a1.15,1.15,0,0,0-.7.25.9.9,0,0,0-.22.26A.59.59,0,0,0,70,14.22Zm1.9-3-.79-.8.78-.82.81.82Z"/><path class="cls-3" d="M79.12,15.61V16.7h-.8a2.39,2.39,0,0,1-.79-.12,1.37,1.37,0,0,1-.58-.36,2.08,2.08,0,0,1-.66.36,3,3,0,0,1-.88.12h-1.8V15.61h1.8a1.54,1.54,0,0,0,.53-.07.84.84,0,0,0,.3-.16.46.46,0,0,0,.13-.22.83.83,0,0,0,0-.22v-1.7h1.09V14.9a.84.84,0,0,0,.05.29.55.55,0,0,0,.14.19.52.52,0,0,0,.17.13.7.7,0,0,0,.19.06l.17,0h.91Zm-3.79-3.75-.79-.8.78-.81.81.81Zm2,0-.8-.8.79-.81.81.81Z"/><path class="cls-3" d="M78.87,15.61h.63a1.81,1.81,0,0,0,.52-.06.65.65,0,0,0,.31-.16.61.61,0,0,0,.15-.26,1.9,1.9,0,0,0,0-.35V13.24h1.1v1.51a.88.88,0,0,0,.21.65,1,1,0,0,0,.68.21l.2,0a.48.48,0,0,0,.24-.11.72.72,0,0,0,.19-.25.89.89,0,0,0,.08-.43V13.24H84.3v1.51a.82.82,0,0,0,.22.65,1,1,0,0,0,.69.21.75.75,0,0,0,.26,0,.56.56,0,0,0,.24-.13.74.74,0,0,0,.17-.25A1,1,0,0,0,86,14.8V13.24h1.1V14.8a.76.76,0,0,0,.25.62,1.27,1.27,0,0,0,.75.19h.52V16.7h-.52a3.06,3.06,0,0,1-.9-.12,1.69,1.69,0,0,1-.65-.39,1.6,1.6,0,0,1-.59.39,2.12,2.12,0,0,1-.71.12,2.64,2.64,0,0,1-.83-.12,1.91,1.91,0,0,1-.62-.39,1.93,1.93,0,0,1-.59.38,1.84,1.84,0,0,1-.65.13h0a2.22,2.22,0,0,1-.81-.13,2,2,0,0,1-.61-.36,1.75,1.75,0,0,1-.67.37,3,3,0,0,1-.9.12h-.63Z"/><path class="cls-3" d="M91.82,12.45a2,2,0,0,1,.88.19,1.84,1.84,0,0,1,.63.51,2,2,0,0,1,.37.73,3.17,3.17,0,0,1,.12.88,4.27,4.27,0,0,1-.08.86,2.43,2.43,0,0,1-.23.6,1.39,1.39,0,0,1-.32.39,1.68,1.68,0,0,1-.36.21,1.15,1.15,0,0,1-.35.1,1.47,1.47,0,0,1-.28,0,2.35,2.35,0,0,1-.47,0,4,4,0,0,1-.46-.14c-.16-.07-.32-.14-.49-.23l-.56-.29a1.24,1.24,0,0,1-.48.35,1.26,1.26,0,0,1-.55.11h-.77V15.61h.74a.29.29,0,0,0,.22-.09.56.56,0,0,0,.17-.22,1.72,1.72,0,0,0,.14-.33c0-.13.08-.26.12-.41l.15-.48a4.78,4.78,0,0,1,.19-.48,2.43,2.43,0,0,1,.26-.44,2,2,0,0,1,.35-.37,1.69,1.69,0,0,1,.46-.25A1.91,1.91,0,0,1,91.82,12.45Zm.38,3.4.15,0a.31.31,0,0,0,.21-.11.73.73,0,0,0,.18-.32,1.78,1.78,0,0,0,.08-.64,1.23,1.23,0,0,0,0-.17,1.4,1.4,0,0,0-.06-.24,1.24,1.24,0,0,0-.11-.28.87.87,0,0,0-.18-.26.77.77,0,0,0-.27-.19.84.84,0,0,0-.37-.08.65.65,0,0,0-.35.09.75.75,0,0,0-.25.22,1.08,1.08,0,0,0-.19.31c0,.12-.1.24-.14.37l-.12.38c0,.13-.07.24-.1.35l.4.22.41.18.39.14A1.39,1.39,0,0,0,92.2,15.85Z"/><path class="cls-3" d="M108.65,15.61V16.7h-.37l-.38,0a2.49,2.49,0,0,1-.37-.09,2.17,2.17,0,0,1-.35-.15,1.33,1.33,0,0,1-.3-.23,2.18,2.18,0,0,1-1.53.5H100a1.82,1.82,0,0,1-1.27-.48,2.4,2.4,0,0,1-.21-.23,1.93,1.93,0,0,1-.19-.32,2.34,2.34,0,0,1-.2-.94,2.89,2.89,0,0,1,.06-.56c0-.2.07-.39.11-.57s.08-.34.12-.47.07-.22.08-.25l.52.17.53.16a1.86,1.86,0,0,0-.09.3,3.89,3.89,0,0,0-.1.4,3.43,3.43,0,0,0-.09.44,1.89,1.89,0,0,0,0,.38,1,1,0,0,0,.1.48.65.65,0,0,0,.22.26.58.58,0,0,0,.26.11l.2,0h5.31a1.78,1.78,0,0,0,.59-.08.71.71,0,0,0,.3-.2.38.38,0,0,0,.11-.23,1.91,1.91,0,0,0,0-.2V13.24h1.09v1.64a.64.64,0,0,0,.35.61,1.11,1.11,0,0,0,.29.1l.22,0Zm-6.75-2.83-.79-.8.78-.81.81.81Zm2,0-.8-.8.79-.81.81.81Z"/><path class="cls-3" d="M108.44,16.7V15.61h2a3.48,3.48,0,0,0,.8-.07,1.56,1.56,0,0,0,.49-.16.63.63,0,0,0,.26-.21.89.89,0,0,0,.1-.23h-.64a4,4,0,0,1-.87-.09,2,2,0,0,1-.72-.3,1.4,1.4,0,0,1-.47-.55,1.82,1.82,0,0,1-.17-.85,2.06,2.06,0,0,1,.56-1.41,1.85,1.85,0,0,1,1.33-.57h.1a2.06,2.06,0,0,1,.69.14,1.69,1.69,0,0,1,.51.34,1.92,1.92,0,0,1,.37.48,3,3,0,0,1,.24.59,4.67,4.67,0,0,1,.13.65c0,.23,0,.46,0,.68v.69a1.78,1.78,0,0,1-.11.67,1.83,1.83,0,0,1-.29.51,2,2,0,0,1-.45.37,3.76,3.76,0,0,1-.57.24,3.3,3.3,0,0,1-.64.13,5.32,5.32,0,0,1-.69,0Zm2.77-4.43h-.12a1.35,1.35,0,0,0-.28,0,.64.64,0,0,0-.28.15.74.74,0,0,0-.21.28.88.88,0,0,0-.08.41.67.67,0,0,0,.11.39.7.7,0,0,0,.29.22,1.18,1.18,0,0,0,.39.11l.42,0h.66c0-.15,0-.31,0-.49a1.71,1.71,0,0,0-.1-.51,1,1,0,0,0-.26-.42A.85.85,0,0,0,111.21,12.27Zm-.85-3.06.83-.84.85.85-.84.84Z"/><path class="cls-3" d="M116.81,16.7a5.8,5.8,0,0,1-.9-.06,2.38,2.38,0,0,1-.62-.2,1,1,0,0,1-.4-.33,1.34,1.34,0,0,1-.24-.46,2.68,2.68,0,0,1-.1-.6q0-.35,0-.75V9.48h1.1V14.3a6.13,6.13,0,0,0,0,.68.68.68,0,0,0,.14.4.62.62,0,0,0,.36.18,3.61,3.61,0,0,0,.66,0Z"/><path class="cls-3" d="M120.32,12.53a1.47,1.47,0,0,1,0,.17l.08.32c0,.13,0,.28.08.43s.06.32.08.48a3.87,3.87,0,0,1,.06.46,3,3,0,0,1,0,.39,2.09,2.09,0,0,1-.17.86,1.9,1.9,0,0,1-.42.6,2,2,0,0,1-.6.35,2.17,2.17,0,0,1-.66.11h-2.23V15.61h2.27l.19,0a.62.62,0,0,0,.25-.11.57.57,0,0,0,.22-.24,1,1,0,0,0,.09-.46,1.47,1.47,0,0,0,0-.28c0-.11,0-.23,0-.35s0-.26-.07-.4,0-.25-.07-.37,0-.22-.08-.32l0-.21Zm-2.51,6.81-.79-.8.78-.81.81.81Zm1.9,0-.79-.8.78-.81.81.81Z"/><path class="cls-3" d="M124.94,16.47a3.83,3.83,0,0,1-.24,1.21,2.69,2.69,0,0,1-.61.92,2.79,2.79,0,0,1-.93.59,3.71,3.71,0,0,1-1.24.2h-.69V18.3h.69a3.1,3.1,0,0,0,.86-.11,1.34,1.34,0,0,0,.6-.33,1.28,1.28,0,0,0,.35-.6,2.86,2.86,0,0,0,.12-.89V13.24h1.09Z"/><path class="cls-3" d="M128.06,16.75a5.68,5.68,0,0,1-.59,0l-.32,0-.35-.07-.35-.11-.34-.16-.48-.27.55-1,.48.27a1.75,1.75,0,0,0,.41.16,3.08,3.08,0,0,0,.53.08,3.7,3.7,0,0,0,.47,0h.21a2.25,2.25,0,0,0,.41,0,1.48,1.48,0,0,0,.48-.13.41.41,0,0,0,.18-.14.19.19,0,0,0,0-.08.89.89,0,0,0,0-.19,1.51,1.51,0,0,0-.22-.4l-.78-1.18c-.2-.31-.35-.54-.47-.71l-.23-.35-.06-.1-.3-.46.91-.6.3.46.07.09.23.35.47.71.78,1.18a2.81,2.81,0,0,1,.39.83,1.61,1.61,0,0,1,0,.37,1.27,1.27,0,0,1-.11.52,1.31,1.31,0,0,1-.6.63,2.45,2.45,0,0,1-.9.28l-.39,0Z"/><path class="cls-3" d="M53,39.81l-.2-.25a6.88,6.88,0,0,1-.47-.7,10.58,10.58,0,0,1-.56-1.12,9.64,9.64,0,0,1-.47-1.46,7.54,7.54,0,0,1-.19-1.76,7.06,7.06,0,0,1,.19-1.69,9,9,0,0,1,.46-1.46,10.21,10.21,0,0,1,.55-1.14,6.6,6.6,0,0,1,.47-.74l.19-.27,1.59,1.29-.22.3a9,9,0,0,0-.49.86,7.36,7.36,0,0,0-.48,1.27,5.29,5.29,0,0,0-.22,1.58,6,6,0,0,0,.14,1.32,6.66,6.66,0,0,0,.35,1.09,6.3,6.3,0,0,0,.4.82,4.56,4.56,0,0,0,.35.52l.14.18Z"/><path class="cls-3" d="M58.61,38.17H56.06v-9h2.55Z"/><path class="cls-3" d="M65,38.35a5.39,5.39,0,0,1-2.57-.6,4.55,4.55,0,0,1-1.78-1.67,4.79,4.79,0,0,1,0-4.82,4.53,4.53,0,0,1,1.78-1.66,5.72,5.72,0,0,1,5.14,0A4.48,4.48,0,0,1,70,33.67a4.53,4.53,0,0,1-.65,2.41,4.62,4.62,0,0,1-1.78,1.67A5.39,5.39,0,0,1,65,38.35Zm0-2.11A2.33,2.33,0,0,0,67.07,35a2.82,2.82,0,0,0,.32-1.36,2.75,2.75,0,0,0-.32-1.35,2.31,2.31,0,0,0-.88-.9A2.45,2.45,0,0,0,65,31.1a2.42,2.42,0,0,0-1.23.32,2.31,2.31,0,0,0-.88.9,2.75,2.75,0,0,0-.32,1.35A2.82,2.82,0,0,0,62.85,35a2.45,2.45,0,0,0,.88.9A2.42,2.42,0,0,0,65,36.24Z"/><path class="cls-3" d="M74.46,38.35a8.16,8.16,0,0,1-2.12-.27,5.28,5.28,0,0,1-1.67-.72l.83-1.88a5.38,5.38,0,0,0,1.41.65,5.28,5.28,0,0,0,1.56.24c1,0,1.47-.24,1.47-.73a.52.52,0,0,0-.24-.45,2,2,0,0,0-.64-.29c-.26-.08-.56-.15-.89-.22s-.6-.14-.91-.22a5,5,0,0,1-.9-.32,2.83,2.83,0,0,1-.78-.48A1.92,1.92,0,0,1,71,33a2.38,2.38,0,0,1-.21-1,2.67,2.67,0,0,1,.44-1.47,3,3,0,0,1,1.33-1.05,5.34,5.34,0,0,1,2.22-.4,7.78,7.78,0,0,1,1.73.2,5.79,5.79,0,0,1,1.53.58l-.78,1.9a5.31,5.31,0,0,0-2.5-.7,2.78,2.78,0,0,0-.85.11,1,1,0,0,0-.46.29.71.71,0,0,0-.14.42.51.51,0,0,0,.24.43,1.89,1.89,0,0,0,.62.27l.88.21.92.21a6.82,6.82,0,0,1,.9.31,3.27,3.27,0,0,1,.79.48,2,2,0,0,1,.55.72,2.28,2.28,0,0,1,.21,1,2.65,2.65,0,0,1-.25,1.11,2.61,2.61,0,0,1-.74.93,3.58,3.58,0,0,1-1.25.63A5.76,5.76,0,0,1,74.46,38.35Z"/><path class="cls-3" d="M80.86,39.81l-1.53-1.36.14-.18a4.73,4.73,0,0,0,.34-.52,5.21,5.21,0,0,0,.41-.82,6.68,6.68,0,0,0,.34-1.09,5.46,5.46,0,0,0,.14-1.32,5.64,5.64,0,0,0-.21-1.58A7.33,7.33,0,0,0,80,31.67a7.41,7.41,0,0,0-.48-.86l-.22-.3,1.59-1.29.19.27c.12.17.28.42.46.74a8.71,8.71,0,0,1,.55,1.14,8.94,8.94,0,0,1,.47,1.46,7.61,7.61,0,0,1,.19,1.69,7.53,7.53,0,0,1-.2,1.76,7.82,7.82,0,0,1-.47,1.46,9,9,0,0,1-.55,1.12,6.67,6.67,0,0,1-.48.7Z"/><path class="cls-3" d="M91.14,44.5h-1a6.84,6.84,0,0,1-2.25-.33,4.72,4.72,0,0,1-1.59-.9,4.61,4.61,0,0,1-1-1.27,5.59,5.59,0,0,1-.54-1.48,6.58,6.58,0,0,1-.17-1.5,11.32,11.32,0,0,1,1.15-4.57l3,1.36A8.46,8.46,0,0,0,88,38.76l0,.33a2.22,2.22,0,0,0,.07.54,1.4,1.4,0,0,0,.3.56,1.62,1.62,0,0,0,.67.43,3.4,3.4,0,0,0,1.22.17h1a4.46,4.46,0,0,0,1.24-.13A1.63,1.63,0,0,0,93,40.3a.93.93,0,0,0,.26-.47,2.59,2.59,0,0,0,0-.47V33.85h3.32v5.37a6.5,6.5,0,0,1-.35,2.26,4.19,4.19,0,0,1-2.23,2.44,6,6,0,0,1-1.48.46A9.46,9.46,0,0,1,91.14,44.5ZM90.79,35,88.9,33.12l1.89-1.9,1.9,1.9Z"/><path class="cls-3" d="M105.94,36.43h.43v3.71h-.48a4.51,4.51,0,0,1-.27,1.11,4.83,4.83,0,0,1-.81,1.38,6.58,6.58,0,0,1-1,.94,4.38,4.38,0,0,1-.8.43,6.12,6.12,0,0,1-1.45.37,14.85,14.85,0,0,1-2.12.13h-.89V40.81h1c.67,0,1.22,0,1.66-.06a2.29,2.29,0,0,0,.94-.21.53.53,0,0,0,.32-.39h-.7a4.41,4.41,0,0,1-2-.49,3.49,3.49,0,0,1-1.41-1.31,3.92,3.92,0,0,1-.53-2.08A5.59,5.59,0,0,1,98.26,34a3.91,3.91,0,0,1,1-1.42,3.64,3.64,0,0,1,1.27-.73,4,4,0,0,1,4.25,1.1,4.78,4.78,0,0,1,1.17,3.29Zm-4.45,0h1.26v-.78a.83.83,0,0,0-.27-.63,1,1,0,0,0-.69-.26.93.93,0,0,0-.66.26.83.83,0,0,0-.27.63,1.46,1.46,0,0,0,0,.38.56.56,0,0,0,.17.29A.61.61,0,0,0,101.49,36.44Z"/><path class="cls-3" d="M116.29,40.14h-1.76a14.39,14.39,0,0,1-1.67-.09c-.51-.06-1.07-.17-1.7-.31a12.77,12.77,0,0,1-3.37.4H106V36.43h1a4.62,4.62,0,0,1-.12-1.07,4.48,4.48,0,0,1,1.19-3.11,4.22,4.22,0,0,1,6.13,0,4.44,4.44,0,0,1,1.2,3.11,4.62,4.62,0,0,1-.12,1.07h1ZM111.16,30l-1.9-1.89,1.9-1.9,1.89,1.9Zm0,6.36a1,1,0,0,0,.23-.07,2.46,2.46,0,0,0,.37-.18,1.21,1.21,0,0,0,.35-.33.82.82,0,0,0,.15-.5,1.41,1.41,0,0,0-.2-.7,1.06,1.06,0,0,0-1.8,0,1.39,1.39,0,0,0-.19.7.94.94,0,0,0,.5.84A1.47,1.47,0,0,0,111.16,36.35Z"/><path class="cls-3" d="M119.25,40.14h-3.61V36.43h3.61a.81.81,0,0,0,.41-.07.27.27,0,0,0,.1-.24,1.68,1.68,0,0,0,0-.29l-.41-2.11,3.22-1,.45,2.47a6.28,6.28,0,0,1,.12,1.17,5.19,5.19,0,0,1-.26,1.55,2.82,2.82,0,0,1-.47.88,3.42,3.42,0,0,1-1.5,1.1A5.59,5.59,0,0,1,119.25,40.14Zm-1.16,4.46-1.78-1.78L118.09,41l1.78,1.78Zm3.81,0-1.78-1.78L121.9,41l1.78,1.78Z"/><path class="cls-3" d="M125,29l-2.24-.63a5.46,5.46,0,0,1,.38-1,2.81,2.81,0,0,1,.71-.88,3.58,3.58,0,0,1,2.4-.67h4.2v2.33h-4.2a1.7,1.7,0,0,0-.73.13.83.83,0,0,0-.36.33A2.05,2.05,0,0,0,125,29Zm3.72,11.19H125.4V29.25h3.33Z"/><path class="cls-1" d="M40.87,34.72v.14a17.87,17.87,0,0,1-4.43,7.43c-1.64,1.77-3.62,1.93-5.77,1.18a10.92,10.92,0,0,0-3.38-.86,7.53,7.53,0,0,0-2.93.57,7.72,7.72,0,0,1-3.74.68,3.72,3.72,0,0,1-2.18-1,19.57,19.57,0,0,1-4.72-6.63,17.62,17.62,0,0,1-1.64-5.63c-.24-2.85-.31-5.66,1.11-8.33,1.79-3.38,6.17-5.78,10.2-4.21.5.2,1,.3,1.52.53a4.17,4.17,0,0,0,3.52,0,12,12,0,0,1,3.76-1.07,8.68,8.68,0,0,1,7.56,3,.56.56,0,0,1-.13.94c-.41.29-.75.64-1.12.95-3.13,2.6-3.19,8.69,1.33,11.51C40.2,34.15,40.64,34.3,40.87,34.72Z"/><path class="cls-1" d="M33.59,9.48c.52,4-3.18,7.78-6,8.08-.16,0-.32,0-.48.06-.47.07-.68-.09-.64-.6a7.74,7.74,0,0,1,4.63-6.84,15.67,15.67,0,0,1,2.1-.7Z"/></svg>