<svg id="Layer_1" data-name="Layer 1" xmlns="http://www.w3.org/2000/svg" viewBox="0 0 139.95 53.78"><defs><style>.cls-1{fill:#f39200;}.cls-2{fill:#04162d;}.cls-3{fill:#062042;}.cls-4{fill:#fff;}.cls-5{fill:#fefefe;}.cls-6{fill:#fdf0ba;}</style></defs><path class="cls-1" d="M135,53.78H4.9c-2.7,0-4.9-2.86-4.9-6.36V6.35C0,2.84,2.2,0,4.9,0H135c2.7,0,5,2.85,5,6.36V47.42c0,3.5-2.28,6.36-5,6.36Z"/><path class="cls-2" d="M138.94,47.42c0,2.85-1.77,5.15-4,5.15H4.9c-2.19,0-4-2.3-4-5.15V6.35c0-2.85,1.79-5.16,4-5.16H135c2.2,0,4,2.31,4,5.16V47.42Z"/><path class="cls-3" d="M74.71,37.1v.18a23.51,23.51,0,0,1-5.83,9.78c-2.16,2.32-4.76,2.53-7.59,1.55a14.52,14.52,0,0,0-4.44-1.13,10.2,10.2,0,0,0-3.86.75,10.12,10.12,0,0,1-4.92.9A5,5,0,0,1,45.2,47.8,25.75,25.75,0,0,1,39,39.08a23.24,23.24,0,0,1-2.16-7.4c-.32-3.75-.41-7.46,1.45-11,2.37-4.45,8.13-7.61,13.43-5.54.65.26,1.36.4,2,.69a5.49,5.49,0,0,0,4.62,0,15.6,15.6,0,0,1,4.95-1.41,11.35,11.35,0,0,1,9.94,4,.74.74,0,0,1-.17,1.24c-.53.37-1,.84-1.47,1.25-4.12,3.41-4.2,11.42,1.74,15.13A3.31,3.31,0,0,1,74.71,37.1Z"/><path class="cls-3" d="M65.13,3.91C65.81,9.19,61,14.13,57.2,14.53c-.21,0-.43,0-.64.08-.62.09-.88-.12-.84-.79a10.22,10.22,0,0,1,6.1-9,21.08,21.08,0,0,1,2.75-.91Z"/><path class="cls-4" d="M88.41,16.86a1.5,1.5,0,0,1-.52,1.2,2.41,2.41,0,0,1-1.57.44h-.73l.21,1.17.94,0a2.69,2.69,0,0,0,1.19-.23,2.63,2.63,0,0,0,.91-.66,3.15,3.15,0,0,0,.57-1,3.78,3.78,0,0,0,.2-1.23V13.2h-1.2Z"/><path class="cls-4" d="M89.06,10.22a.86.86,0,0,0-.64.25A.89.89,0,0,0,89.06,12a.8.8,0,0,0,.61-.27.87.87,0,0,0,0-1.24A.82.82,0,0,0,89.06,10.22Z"/><rect class="cls-4" x="91.42" y="9.45" width="1.1" height="7.33"/><path class="cls-4" d="M100.09,12.25a.75.75,0,0,0,.74-.74.73.73,0,0,0-.22-.54.7.7,0,0,0-.52-.23.75.75,0,0,0-.55.23.77.77,0,0,0-.22.54.73.73,0,0,0,.22.52A.74.74,0,0,0,100.09,12.25Z"/><path class="cls-4" d="M102.12,12.25a.72.72,0,0,0,.54-.22.73.73,0,0,0,.22-.52.77.77,0,0,0-.22-.54.76.76,0,0,0-1.29.54.69.69,0,0,0,.22.52A.71.71,0,0,0,102.12,12.25Z"/><path class="cls-4" d="M109.91,10.58a.83.83,0,0,0,.62-.27.88.88,0,0,0-1.25-1.24.87.87,0,0,0,0,1.24A.83.83,0,0,0,109.91,10.58Z"/><path class="cls-4" d="M111.59,11.94a2.07,2.07,0,0,0-.66-.55,1.87,1.87,0,0,0-.9-.21,2.18,2.18,0,0,0-.79.14,1.86,1.86,0,0,0-1.15,1.76,2.06,2.06,0,0,0,.34,1.23,1.36,1.36,0,0,0,1.12.51l1.47,0a.77.77,0,0,1-.14.52.87.87,0,0,1-.7.22h-3.25a1.39,1.39,0,0,1-.67-.17.64.64,0,0,1-.31-.63V13.2h-1.18v1.55a1.24,1.24,0,0,1-.13.65q-.14.21-.6.21H98.59a1,1,0,0,1-.66-.19.92.92,0,0,1-.2-.67V13.2H96.58v1.73A2.07,2.07,0,0,0,97,16.3a1.52,1.52,0,0,0,1.23.48h6.06a1.52,1.52,0,0,0,1.1-.42,1.73,1.73,0,0,0,.71.34,4.6,4.6,0,0,0,.84.08h3.43a1.54,1.54,0,0,0,1.33-.7,2.17,2.17,0,0,0,.33-.74,3.68,3.68,0,0,0,.1-.89v-.86a2.89,2.89,0,0,0-.13-.88A2.56,2.56,0,0,0,111.59,11.94Zm-1.8,1.73a1.47,1.47,0,0,1-.49-.12.39.39,0,0,1-.25-.41.73.73,0,0,1,.86-.78.81.81,0,0,1,.46.12,1.22,1.22,0,0,1,.34.3,1.53,1.53,0,0,1,.23.44,1.73,1.73,0,0,1,.08.49Z"/><path class="cls-4" d="M116.31,18a.76.76,0,0,0-.54.21.74.74,0,0,0-.22.52.78.78,0,0,0,.22.55.73.73,0,0,0,.54.22.69.69,0,0,0,.53-.22.74.74,0,0,0,.22-.55.7.7,0,0,0-.22-.52A.72.72,0,0,0,116.31,18Z"/><path class="cls-4" d="M118.6,14.75a1.87,1.87,0,0,1,0,.34.54.54,0,0,1-.11.27.75.75,0,0,1-.26.18,1.44,1.44,0,0,1-.46.07H116a1.08,1.08,0,0,1-.64-.17c-.16-.11-.24-.36-.24-.74V9.45h-1.14V14.9a1.83,1.83,0,0,0,.51,1.44,2.07,2.07,0,0,0,1.39.44h2.25a1.58,1.58,0,0,0,1.28-.5,2.11,2.11,0,0,0,.41-1.35V13.2H118.6Z"/><path class="cls-4" d="M118.25,18a.77.77,0,0,0-.55.21.7.7,0,0,0-.22.52.75.75,0,0,0,.77.77.7.7,0,0,0,.52-.22.78.78,0,0,0,.22-.55.74.74,0,0,0-.22-.52A.73.73,0,0,0,118.25,18Z"/><path class="cls-4" d="M122.33,16.86a1.47,1.47,0,0,1-.52,1.2,2.41,2.41,0,0,1-1.57.44H120l.2,1.17.51,0a2.84,2.84,0,0,0,1.19-.24,2.49,2.49,0,0,0,.91-.65,3,3,0,0,0,.57-1,3.53,3.53,0,0,0,.2-1.23V13.2h-1.2Z"/><path class="cls-4" d="M130.32,14.63a2.23,2.23,0,0,0-.43-.65l-2.56-2.72-.77.78,2.58,2.72a.64.64,0,0,1,.19.44.37.37,0,0,1-.13.29.56.56,0,0,1-.41.13H125l.15,1.16h3.57a1.66,1.66,0,0,0,1.27-.44,1.4,1.4,0,0,0,.43-1A1.84,1.84,0,0,0,130.32,14.63Z"/><path class="cls-4" d="M71.6,44.93H69.14a6.49,6.49,0,0,1-2.86-.58,5.65,5.65,0,0,1-2-1.55,6.23,6.23,0,0,1-1.14-2.16,8.23,8.23,0,0,1-.37-2.45,9.91,9.91,0,0,1,.37-2.53A12.43,12.43,0,0,1,64.23,33l3.39,1.63a8.63,8.63,0,0,0-1,3.61,2.68,2.68,0,0,0,.64,1.88,2.5,2.5,0,0,0,1.9.68H71.6c.47,0,.86,0,1.18,0a6,6,0,0,0,.8-.12,3.09,3.09,0,0,0,.48-.13,1.28,1.28,0,0,0,.24-.12l.06,0a5.22,5.22,0,0,0-1.23-.39,15,15,0,0,0-1.49-.24l-.56-.09V35.77h8.44V40H77.83a3.27,3.27,0,0,1,0,.53,4.16,4.16,0,0,1-.45,2,3.7,3.7,0,0,1-1.17,1.28,5.54,5.54,0,0,1-1.56.72,9.08,9.08,0,0,1-1.66.3C72.49,44.91,72,44.93,71.6,44.93Z"/><path class="cls-4" d="M79.51,40h-2.3V35.77h2.3a.81.81,0,0,0,.46-.09.32.32,0,0,0,.12-.27,2.12,2.12,0,0,0,0-.33l-.47-2.4,3.66-1.11.52,2.81a7.26,7.26,0,0,1,.14,1.33,5.42,5.42,0,0,1-.31,1.77,3.14,3.14,0,0,1-.52,1,3.82,3.82,0,0,1-1.71,1.25A6,6,0,0,1,79.51,40Zm1.26-9.71-2.15-2.16L80.77,26l2.16,2.16Z"/><path class="cls-4" d="M87.25,40.75c.75,0,1.38,0,1.88-.07a2.77,2.77,0,0,0,1.07-.24.59.59,0,0,0,.36-.44h-.79a5.11,5.11,0,0,1-2.23-.56,4.08,4.08,0,0,1-1.61-1.5,4.4,4.4,0,0,1-.6-2.36A6.45,6.45,0,0,1,85.77,33a4.44,4.44,0,0,1,1.12-1.61,4.06,4.06,0,0,1,1.45-.84,4.51,4.51,0,0,1,4.84,1.25,5.47,5.47,0,0,1,1.34,3.75V39a6.11,6.11,0,0,1-.38,2.21,5.54,5.54,0,0,1-.91,1.57,7.93,7.93,0,0,1-1.12,1.07,5.66,5.66,0,0,1-.91.48,6.73,6.73,0,0,1-1.64.42,15.94,15.94,0,0,1-2.43.15h-1V40.75Zm2.2-5h1.44v-.88a1,1,0,0,0-.32-.73,1.12,1.12,0,0,0-.77-.29,1,1,0,0,0-.76.3.92.92,0,0,0-.31.72,2,2,0,0,0,0,.43.63.63,0,0,0,.21.33A.72.72,0,0,0,89.45,35.77Z"/><path class="cls-4" d="M101,40a10.72,10.72,0,0,1-2.23-.25c-.8-.17-1.49-.35-2.09-.52l-1.09-.34,1.2-4c.56.19,1.27.39,2.12.59a9.07,9.07,0,0,0,2.09.31c.26,0,.41,0,.44-.14s0,0,0-.09a.88.88,0,0,0-.15-.39L98,30.43l3.12-2.13s.14.19.43.6c.42.62,1.38,2,2.87,4.1a4.64,4.64,0,0,1,.86,2.71,4.75,4.75,0,0,1-.45,2.07,3.94,3.94,0,0,1-1.55,1.61A4.49,4.49,0,0,1,101,40Z"/><path class="cls-4" d="M105.7,45h-.91V40.74h.91a2.84,2.84,0,0,0,2.18-.68,3.59,3.59,0,0,0,.59-2.27v-5h3.79v5a10.8,10.8,0,0,1-.4,2.94A5.47,5.47,0,0,1,110.71,43a5.33,5.33,0,0,1-2.18,1.5A8.11,8.11,0,0,1,105.7,45Z"/><path class="cls-4" d="M119,40h-.82a4.76,4.76,0,0,1-1.43-.19,3.91,3.91,0,0,1-1-.46,4,4,0,0,1-.71-.55,4.29,4.29,0,0,1-.56-.71A4.66,4.66,0,0,1,114,37a4.76,4.76,0,0,1-.19-1.43V26.23h3.78v8.94a.5.5,0,0,0,.21.46.74.74,0,0,0,.38.14H119Z"/><path class="cls-4" d="M120.85,40h-2.3V35.77h2.3a.81.81,0,0,0,.46-.09.32.32,0,0,0,.12-.27,2.12,2.12,0,0,0,0-.33l-.47-2.4,3.66-1.11.52,2.81a7.26,7.26,0,0,1,.14,1.33,5.42,5.42,0,0,1-.31,1.77,3.14,3.14,0,0,1-.52,1,3.82,3.82,0,0,1-1.71,1.25A6.07,6.07,0,0,1,120.85,40Zm1.26-9.71L120,28.11,122.11,26l2.16,2.16Z"/><path class="cls-4" d="M130.46,40h-3.79V26.23h3.79Z"/><path class="cls-1" d="M12.92,28.59A15.44,15.44,0,0,1,23.18,13.93c.84-.3.88-.37.77-1.26l-.27-2a.55.55,0,0,1,.21-.6.57.57,0,0,1,.64.1l1.24.88a.53.53,0,0,0,.75,0c.45-.4.92-.77,1.36-1.17a.58.58,0,0,1,.91,0c.42.39.88.75,1.31,1.14A.59.59,0,0,0,31,11c.37-.28.78-.54,1.16-.82a.56.56,0,0,1,.67-.1c.23.15.22.39.19.62-.1.75-.19,1.49-.3,2.24-.07.48.12.72.58.89,5.83,2.17,9.38,6.32,10.3,12.45a15.42,15.42,0,0,1-30.42,5A12.22,12.22,0,0,1,12.92,28.59Z"/><path class="cls-5" d="M24.6,29A30.4,30.4,0,0,1,26,19.12a12.51,12.51,0,0,1,1.12-2.37,4,4,0,0,1,4.23-1.91c5.1.55,8.36,3.46,9.92,8.22A15.94,15.94,0,0,1,40,36.5a10.92,10.92,0,0,1-9.49,5.65,3.47,3.47,0,0,1-3.08-1.48,12.15,12.15,0,0,1-2-4.63A33.8,33.8,0,0,1,24.6,29Z"/><path class="cls-6" d="M26.17,28.5a27.33,27.33,0,0,1,1.17-8.42,8.68,8.68,0,0,1,1-2.18,3.09,3.09,0,0,1,3.11-1.58,9.23,9.23,0,0,1,4.42,1.5,10.54,10.54,0,0,1,4.07,6,16.17,16.17,0,0,1,.62,5.66,13.49,13.49,0,0,1-2.68,7.75,8.8,8.8,0,0,1-5.81,3.35A3.5,3.5,0,0,1,29,39.79a5.9,5.9,0,0,1-1.41-2.32A22.88,22.88,0,0,1,26.27,31C26.21,30.15,26.19,29.33,26.17,28.5Z"/><path class="cls-1" d="M34.73,20.88A1.76,1.76,0,1,1,33,19.11,1.75,1.75,0,0,1,34.73,20.88Z"/><path class="cls-1" d="M33,37.72A1.73,1.73,0,0,1,31.22,36a1.77,1.77,0,1,1,3.53,0A1.75,1.75,0,0,1,33,37.72Z"/><path class="cls-1" d="M36.28,25.52A1.53,1.53,0,1,1,37.84,24,1.54,1.54,0,0,1,36.28,25.52Z"/><path class="cls-1" d="M34.77,32.94a1.49,1.49,0,0,1,1.51-1.55,1.54,1.54,0,1,1,0,3.07A1.49,1.49,0,0,1,34.77,32.94Z"/><path class="cls-1" d="M38.93,28.52a1.49,1.49,0,0,1-1.52,1.53,1.52,1.52,0,0,1-1.55-1.52A1.55,1.55,0,0,1,37.39,27,1.52,1.52,0,0,1,38.93,28.52Z"/><path class="cls-1" d="M32.86,30.05a1.52,1.52,0,0,1-1.52-1.54A1.55,1.55,0,0,1,32.89,27a1.53,1.53,0,0,1,1.51,1.55A1.5,1.5,0,0,1,32.86,30.05Z"/><path class="cls-1" d="M31.34,25a1.54,1.54,0,0,1-1.51,1.56A1.57,1.57,0,0,1,28.28,25a1.55,1.55,0,0,1,1.52-1.55A1.51,1.51,0,0,1,31.34,25Z"/><path class="cls-1" d="M31.34,32.12a1.49,1.49,0,0,1-1.52,1.52,1.52,1.52,0,0,1-1.54-1.52,1.56,1.56,0,0,1,1.54-1.54A1.53,1.53,0,0,1,31.34,32.12Z"/></svg>