<svg id="Layer_1" data-name="Layer 1" xmlns="http://www.w3.org/2000/svg" viewBox="0 0 139.95 53.78"><defs><style>.cls-1{fill:#f39200;}.cls-2{fill:#04162d;}.cls-3{fill:#fff;}</style></defs><path class="cls-1" d="M134.94,53.78H4.9c-2.7,0-4.9-2.86-4.9-6.36V6.35C0,2.85,2.2,0,4.9,0h130c2.7,0,5,2.85,5,6.35V47.42c0,3.5-2.28,6.36-5,6.36Z"/><path class="cls-2" d="M138.91,47.42c0,2.84-1.77,5.15-4,5.15H4.9c-2.19,0-4-2.31-4-5.15V6.35c0-2.84,1.79-5.15,4-5.15h130c2.2,0,4,2.31,4,5.15V47.42Z"/><path class="cls-1" d="M43.37,21h0A9.72,9.72,0,0,0,40,19.69c-.56-.14-1.2-.26-1.94-.38-.93-.15-2-.29-3.24-.39l-.18,0c-.25-.6-.51-1.2-.78-1.84-.15-.35-.29-.69-.44-1.06a.5.5,0,0,1-.05-.13,15.27,15.27,0,0,0-2.11-3.95,5.26,5.26,0,0,0-4.07-2.11,5.24,5.24,0,0,0-4.06,2.11A15.27,15.27,0,0,0,21,15.87S21,16,21,16c-.15.37-.29.71-.44,1.06-.27.64-.53,1.24-.79,1.84l-.17,0c-1.24.1-2.32.24-3.25.39-.73.12-1.37.25-1.94.38A9.55,9.55,0,0,0,11,21h0a.61.61,0,0,0-.24.58l.16,1.21c.25,1.82.51,3.95,1,6.15a34.29,34.29,0,0,0,1.34,5c.23.64.49,1.27.78,1.88a14.73,14.73,0,0,0,9.82,7.79,14.71,14.71,0,0,0,6.73,0,14.72,14.72,0,0,0,9.93-8c.23-.48.43-1,.62-1.49a50.28,50.28,0,0,0,2.28-10.73l.24-1.8A.61.61,0,0,0,43.37,21ZM27.19,18.62c-1.52,0-2.91,0-4.18.08h0l.21-.48c.16-.38.32-.75.46-1.12a20.12,20.12,0,0,1,1.09-2.38,7,7,0,0,1,.64-1,2.48,2.48,0,0,1,1.78-1,2.48,2.48,0,0,1,1.79,1,7,7,0,0,1,.64,1A20.1,20.1,0,0,1,30.7,17.1c.15.37.3.74.47,1.12.07.16.14.32.2.48C30.11,18.65,28.72,18.62,27.19,18.62Z"/><path class="cls-3" d="M57,44.93h-.83V41H57a2.61,2.61,0,0,0,2-.62,3.28,3.28,0,0,0,.55-2.1V33.7h3.51v4.6A10.37,10.37,0,0,1,62.72,41a5.2,5.2,0,0,1-1.06,2.09,5,5,0,0,1-2,1.39A7.38,7.38,0,0,1,57,44.93Z"/><path class="cls-3" d="M68,40.35H64.52V27.6H68Z"/><path class="cls-3" d="M68.87,44.93H68V41h.84a2.64,2.64,0,0,0,2-.62,3.34,3.34,0,0,0,.54-2.1V33.7h3.51v4.6A10,10,0,0,1,74.57,41a5.08,5.08,0,0,1-1.06,2.09,5,5,0,0,1-2,1.39A7.37,7.37,0,0,1,68.87,44.93Zm4.34-12.26-2-2,2-2,2,2Z"/><path class="cls-3" d="M81.21,40.34h-.76a4.65,4.65,0,0,1-1.32-.17,3.86,3.86,0,0,1-1-.43,4.73,4.73,0,0,1-.66-.51,3.79,3.79,0,0,1-.51-.66,4.16,4.16,0,0,1-.43-1,4.41,4.41,0,0,1-.17-1.32V27.6h3.5v8.28a.46.46,0,0,0,.2.42.7.7,0,0,0,.35.12h.78Z"/><path class="cls-3" d="M82.89,40.32H80.76v-3.9h2.13a.74.74,0,0,0,.43-.08.3.3,0,0,0,.11-.25,1.69,1.69,0,0,0,0-.3L83,33.57l3.39-1,.47,2.6A6.29,6.29,0,0,1,87,36.37,5.14,5.14,0,0,1,86.68,38a2.92,2.92,0,0,1-.49.93,3.5,3.5,0,0,1-1.58,1.15A5.51,5.51,0,0,1,82.89,40.32ZM83.55,45l-2-2,2-2,2,2Z"/><path class="cls-3" d="M105.47,40.33H105a6.28,6.28,0,0,1-2.83-.57,3.85,3.85,0,0,1-1.21-.92,4.68,4.68,0,0,1-1.34.5,7.66,7.66,0,0,1-1.39.12,4.51,4.51,0,0,1-1.64-.32,3.55,3.55,0,0,1-1.42-1.07,4.67,4.67,0,0,1-.88-2,4.87,4.87,0,0,1-.1-1A4.11,4.11,0,0,1,95,32.47a6.15,6.15,0,0,1,3.28-1.95L98.17,30l3.42-.78q.31,1.3.81,3.51c.2.94.42,1.87.66,2.8a1.26,1.26,0,0,0,.2.47,1,1,0,0,0,.53.29,5.49,5.49,0,0,0,1.17.09h.51Zm-7.21-4.25a1.27,1.27,0,0,0,.58-.14,1,1,0,0,0,.52-.93,4.36,4.36,0,0,0-.18-1l-.07-.3c-.47.19-.8.34-1,.44a1.58,1.58,0,0,0-.44.29,1.07,1.07,0,0,0-.34.74.93.93,0,0,0,.26.63A.88.88,0,0,0,98.26,36.08Z"/><path class="cls-3" d="M113.94,36.13a3.94,3.94,0,0,1-.59,2.16,4.06,4.06,0,0,1-1.74,1.49,6.34,6.34,0,0,1-2.79.55h-4.15V36.42h.81c0-.32,0-.61,0-.89a6,6,0,0,1,.41-2.37,4.12,4.12,0,0,1,1-1.49,3.91,3.91,0,0,1,1.34-.78,4.34,4.34,0,0,1,1.32-.22,4.19,4.19,0,0,1,3.15,1.38,5.07,5.07,0,0,1,1.24,3.48Zm-4.36-6.53-2-2,2-2,2,2Zm0,4.75a1,1,0,0,0-.7.27.88.88,0,0,0-.28.67,1.75,1.75,0,0,0,0,.4.54.54,0,0,0,.19.3.63.63,0,0,0,.43.12h1.32v-.82a.9.9,0,0,0-.28-.68A1.07,1.07,0,0,0,109.57,34.35Z"/><path class="cls-3" d="M120.34,40.34h-.76a4.75,4.75,0,0,1-1.32-.17,3.78,3.78,0,0,1-1-.43,4.33,4.33,0,0,1-.67-.51,3.79,3.79,0,0,1-.51-.66,4.16,4.16,0,0,1-.43-1,4.75,4.75,0,0,1-.17-1.32V27.6H119v8.28a.46.46,0,0,0,.2.42.7.7,0,0,0,.35.12h.78Z"/><path class="cls-3" d="M121.14,32.34l.36-3L129,26l1.45,3.19-5.12,2.35.44.45c.37.37.79.79,1.25,1.28l.25.25c.32.33.59.63.82.9a4.22,4.22,0,0,1,.56.86,4,4,0,0,1,.36,1.11,6.09,6.09,0,0,1,0,.72c0,.08,0,.22,0,.41a3.25,3.25,0,0,1-.23.86,2.64,2.64,0,0,1-.62.88,3.33,3.33,0,0,1-1.32.79,7.77,7.77,0,0,1-2.41.32H119.9V36.42H125l.53,0a21.34,21.34,0,0,0-1.77-1.8c-.64-.58-1.21-1.08-1.72-1.49l-.92-.73Z"/><path class="cls-3" d="M88.39,16.86a1.47,1.47,0,0,1-.52,1.2,2.41,2.41,0,0,1-1.57.44h-.73l.21,1.17.94,0a2.69,2.69,0,0,0,1.19-.23,2.63,2.63,0,0,0,.91-.66,3.21,3.21,0,0,0,.57-1,3.84,3.84,0,0,0,.2-1.24V13.2h-1.2Z"/><path class="cls-3" d="M89,10.22a.87.87,0,0,0-.64.26.82.82,0,0,0-.25.61.88.88,0,0,0,.25.63A.87.87,0,0,0,89,12a.83.83,0,0,0,.61-.26.89.89,0,0,0,.26-.63.89.89,0,0,0-.87-.87Z"/><rect class="cls-3" x="91.4" y="9.45" width="1.1" height="7.33"/><path class="cls-3" d="M100.07,12.25a.7.7,0,0,0,.52-.22.67.67,0,0,0,.22-.52.73.73,0,0,0-.22-.54.7.7,0,0,0-.52-.22.74.74,0,0,0-.55.22.77.77,0,0,0-.22.54.71.71,0,0,0,.22.52A.74.74,0,0,0,100.07,12.25Z"/><path class="cls-3" d="M102.1,12.25a.73.73,0,0,0,.54-.22.7.7,0,0,0,.21-.52.76.76,0,0,0-.21-.54.73.73,0,0,0-.54-.22.69.69,0,0,0-.53.22.73.73,0,0,0-.22.54.67.67,0,0,0,.22.52A.69.69,0,0,0,102.1,12.25Z"/><path class="cls-3" d="M109.88,10.58a.84.84,0,0,0,.62-.26.89.89,0,0,0,.26-.63.89.89,0,0,0-.88-.87.86.86,0,0,0-.63.26.82.82,0,0,0-.25.61.88.88,0,0,0,.25.63A.86.86,0,0,0,109.88,10.58Z"/><path class="cls-3" d="M111.56,11.94a2.19,2.19,0,0,0-.65-.55,1.87,1.87,0,0,0-.9-.21,2,2,0,0,0-.79.15,1.84,1.84,0,0,0-.62.4,1.73,1.73,0,0,0-.39.6,1.86,1.86,0,0,0-.15.75,2.11,2.11,0,0,0,.35,1.24,1.34,1.34,0,0,0,1.11.51l1.48,0a.82.82,0,0,1-.14.52c-.11.15-.34.22-.7.22H106.9a1.42,1.42,0,0,1-.67-.17.65.65,0,0,1-.3-.63V13.2h-1.18v1.55a1.24,1.24,0,0,1-.13.65c-.09.14-.3.21-.61.21H98.56a.92.92,0,0,1-.65-.19.87.87,0,0,1-.2-.67V13.2H96.56v1.73A2.07,2.07,0,0,0,97,16.3a1.52,1.52,0,0,0,1.23.48h6a1.51,1.51,0,0,0,1.1-.42,1.6,1.6,0,0,0,.72.34,3.77,3.77,0,0,0,.83.08h3.44a1.61,1.61,0,0,0,.78-.18,1.7,1.7,0,0,0,.55-.52,2.37,2.37,0,0,0,.32-.74,3.68,3.68,0,0,0,.11-.89v-.86a2.94,2.94,0,0,0-.14-.88A2.46,2.46,0,0,0,111.56,11.94Zm-1.8,1.73a1.41,1.41,0,0,1-.48-.12.39.39,0,0,1-.25-.41.83.83,0,0,1,.19-.56.81.81,0,0,1,.66-.22.85.85,0,0,1,.46.12,1.15,1.15,0,0,1,.35.31,1.47,1.47,0,0,1,.23.43,1.73,1.73,0,0,1,.08.49Z"/><path class="cls-3" d="M116.28,18a.69.69,0,0,0-.53.22.68.68,0,0,0-.22.51.74.74,0,0,0,.22.55.69.69,0,0,0,.53.22.73.73,0,0,0,.54-.22.77.77,0,0,0,.21-.55.71.71,0,0,0-.21-.51A.73.73,0,0,0,116.28,18Z"/><path class="cls-3" d="M118.57,14.75c0,.12,0,.23,0,.34a.61.61,0,0,1-.12.27.51.51,0,0,1-.26.18,1.17,1.17,0,0,1-.46.07h-1.79a1.1,1.1,0,0,1-.64-.17c-.15-.11-.23-.35-.23-.73V9.45H113.9V14.9a1.8,1.8,0,0,0,.52,1.44,2,2,0,0,0,1.38.44h2.26a1.54,1.54,0,0,0,1.27-.5,2.05,2.05,0,0,0,.41-1.35V13.2h-1.17Z"/><path class="cls-3" d="M118.22,18a.74.74,0,0,0-.55.22.71.71,0,0,0-.21.51.77.77,0,0,0,.21.55.74.74,0,0,0,.55.22.69.69,0,0,0,.52-.22.74.74,0,0,0,.22-.55.75.75,0,0,0-.74-.73Z"/><path class="cls-3" d="M122.3,16.86a1.47,1.47,0,0,1-.52,1.2,2.39,2.39,0,0,1-1.57.44h-.29l.2,1.17.51,0a3.09,3.09,0,0,0,1.2-.23,2.6,2.6,0,0,0,.9-.66,2.85,2.85,0,0,0,.57-1,3.59,3.59,0,0,0,.21-1.24V13.2H122.3Z"/><path class="cls-3" d="M130.29,14.63a2.23,2.23,0,0,0-.43-.65l-2.56-2.72-.77.78,2.58,2.73a.62.62,0,0,1,.19.43.41.41,0,0,1-.13.3.61.61,0,0,1-.41.12H125l.15,1.16h3.57a1.7,1.7,0,0,0,1.27-.43,1.42,1.42,0,0,0,.43-1A1.88,1.88,0,0,0,130.29,14.63Z"/></svg>