<svg id="Layer_1" data-name="Layer 1" xmlns="http://www.w3.org/2000/svg" viewBox="0 0 139.95 53.78"><defs><style>.cls-1{fill:#f39200;}.cls-2{fill:#04162d;}.cls-3{fill:#fff;}</style></defs><path class="cls-1" d="M135,53.78H4.9c-2.7,0-4.9-2.86-4.9-6.36V6.35C0,2.84,2.2,0,4.9,0H135c2.7,0,5,2.85,5,6.36V47.42c0,3.5-2.28,6.36-5,6.36Z"/><path class="cls-2" d="M138.94,47.42c0,2.85-1.77,5.15-4,5.15H4.9c-2.19,0-4-2.3-4-5.15V6.35c0-2.85,1.79-5.16,4-5.16H135c2.2,0,4,2.31,4,5.16V47.42Z"/><path class="cls-3" d="M90.27,40.29q-7.2,0-7.92,0a9.87,9.87,0,0,1-1.24-.1,3.16,3.16,0,0,1-2.25-1.42,4,4,0,0,1-.49-1.23A6.58,6.58,0,0,1,78.21,36a8.11,8.11,0,0,1,.05-.86A13.67,13.67,0,0,1,78.77,33v-.05l3.36,1-.12.51A14,14,0,0,0,81.68,36a.36.36,0,0,0,.1.27.5.5,0,0,0,.37.1h8.21a1,1,0,0,0,.8-.24,1.07,1.07,0,0,0,.2-.72V33.6h3.51v2.1a.56.56,0,0,0,.24.47,1.47,1.47,0,0,0,.76.15h.73v3.92q-1.17,0-1.77,0a3.1,3.1,0,0,1-.91-.15,1.72,1.72,0,0,1-.57-.36,3.18,3.18,0,0,1-.95.41,5.92,5.92,0,0,1-1,.15C91,40.28,90.64,40.29,90.27,40.29Zm-5.62-6.66-1.87-1.88,1.87-1.88,1.88,1.88Zm4,0-1.88-1.88,1.88-1.88,1.88,1.88Z"/><path class="cls-3" d="M107.21,40.24a12.26,12.26,0,0,1-1.78-.12,4.87,4.87,0,0,1-2.52-1.26,4.47,4.47,0,0,1-1.13.85,5.1,5.1,0,0,1-2.29.53H96.18V36.32h3a6.56,6.56,0,0,0,.76,0,4.84,4.84,0,0,0,.68-.11c.19,0,.3-.09.33-.14l-.33-.43c-.21-.3-.46-.64-.74-1l-2.06-2.47.61-2.66,7.41-3.59L107.41,29,102,31.65l.47.59.87,1.14,1,1.28a12.36,12.36,0,0,0,1,1.17,1.36,1.36,0,0,0,.76.42,7.17,7.17,0,0,0,1.19.07Z"/><path class="cls-3" d="M110.44,40.23h-3.8V36.32h3.8a.76.76,0,0,0,.43-.08A.3.3,0,0,0,111,36a1.69,1.69,0,0,0,0-.3l-.43-2.23,3.39-1,.48,2.6a7,7,0,0,1,.13,1.23,5.16,5.16,0,0,1-.29,1.64,2.91,2.91,0,0,1-.48.93A3.55,3.55,0,0,1,112.16,40,5.82,5.82,0,0,1,110.44,40.23Zm-1.22,4.71-1.88-1.89,1.88-1.87,1.88,1.87Zm4,0-1.87-1.89,1.87-1.87,1.89,1.87Z"/><path class="cls-3" d="M120.71,40.24H120a4.43,4.43,0,0,1-1.33-.17,3.78,3.78,0,0,1-1-.42,4.34,4.34,0,0,1-.66-.52,3.37,3.37,0,0,1-.52-.66,3.78,3.78,0,0,1-.42-1,4.39,4.39,0,0,1-.18-1.32V27.49h3.5v8.28a.47.47,0,0,0,.2.43.7.7,0,0,0,.35.12h.78Z"/><path class="cls-3" d="M127,40.46a6.16,6.16,0,0,1-1.58-.19,8.43,8.43,0,0,1-1.31-.42,8.08,8.08,0,0,1-.91-.43,2.6,2.6,0,0,1-1,.58,4.07,4.07,0,0,1-1.33.24h-.6V36.32h.34c.57,0,.94-.09,1.1-.29a3,3,0,0,0,.47-1.12l.15-.46a3.39,3.39,0,0,1,.23-.58,4.6,4.6,0,0,1,.47-.8,4.44,4.44,0,0,1,.76-.81,3.76,3.76,0,0,1,2.53-.89,3.67,3.67,0,0,1,1.57.31,3.92,3.92,0,0,1,1.16.82,4.8,4.8,0,0,1,.78,1.1,6.15,6.15,0,0,1,.46,1.17,4.91,4.91,0,0,1,.17,1v.4a4.77,4.77,0,0,1-.84,3A3.26,3.26,0,0,1,128,40.32,3.45,3.45,0,0,1,127,40.46Zm0-3.23c.11,0,.22-.13.32-.38a1.52,1.52,0,0,0,.11-.62,1.71,1.71,0,0,0-.21-.8,1.5,1.5,0,0,0-.4-.47.85.85,0,0,0-.55-.2.66.66,0,0,0-.53.31,3.36,3.36,0,0,0-.35.68,4.46,4.46,0,0,0-.19.62,4,4,0,0,0,.57.38,7.64,7.64,0,0,0,.71.34A1.75,1.75,0,0,0,127,37.23Z"/><path class="cls-1" d="M30.6,45.18A18.32,18.32,0,1,1,49,27.08,18.31,18.31,0,0,1,30.6,45.18Z"/><path class="cls-3" d="M30.48,20.67c.31-.25.58-.54.89-.78a6.52,6.52,0,0,1,10.41,3.85A5.41,5.41,0,0,1,41.91,25v7.16a1.53,1.53,0,0,1-.78,1.43,1.62,1.62,0,0,1-2.47-1.36q0-3.48,0-7A3.32,3.32,0,0,0,37.87,23a3.08,3.08,0,0,0-3.13-1.08,3.14,3.14,0,0,0-2.44,2.29,3.19,3.19,0,0,0-.12,1c0,1.95,0,3.89,0,5.84a1.64,1.64,0,0,1-1.56,1.69A1.63,1.63,0,0,1,28.86,31c0-.72,0-1.44,0-2.16,0-1.29,0-2.58,0-3.88a3.22,3.22,0,0,0-6.38-.62,4,4,0,0,0-.09.92c0,2.26,0,4.51,0,6.77a1.62,1.62,0,0,1-.56,1.3,1.66,1.66,0,0,1-2.7-.84,3,3,0,0,1-.08-.73c0-2.21,0-4.41,0-6.62a6.54,6.54,0,0,1,1.86-4.71,6.32,6.32,0,0,1,4.27-1.94,6.47,6.47,0,0,1,4.33,1.28A12.84,12.84,0,0,1,30.48,20.67Z"/><path class="cls-3" d="M30.67,37.17a6.76,6.76,0,0,1-3-.66A5.74,5.74,0,0,1,25.88,35a1.9,1.9,0,0,1-.22-.33c-.06-.1-.09-.23,0-.31s.18,0,.25.1a5.61,5.61,0,0,0,3,1.45,8.3,8.3,0,0,0,5.35-.63,3.9,3.9,0,0,0,1.15-.82c.07-.07.15-.16.25-.09a.22.22,0,0,1,0,.27,2.19,2.19,0,0,1-.25.37,5.55,5.55,0,0,1-3.82,2.06A5.22,5.22,0,0,1,30.67,37.17Z"/><path class="cls-3" d="M88.41,16.86a1.5,1.5,0,0,1-.52,1.2,2.41,2.41,0,0,1-1.57.44h-.73l.21,1.17.94,0a2.69,2.69,0,0,0,1.19-.23,2.63,2.63,0,0,0,.91-.66,3.15,3.15,0,0,0,.57-1,3.78,3.78,0,0,0,.2-1.23V13.2h-1.2Z"/><path class="cls-3" d="M89.06,10.22a.86.86,0,0,0-.64.25A.89.89,0,0,0,89.06,12a.8.8,0,0,0,.61-.27.87.87,0,0,0,0-1.24A.82.82,0,0,0,89.06,10.22Z"/><rect class="cls-3" x="91.42" y="9.45" width="1.1" height="7.33"/><path class="cls-3" d="M100.09,12.25a.75.75,0,0,0,.74-.74.73.73,0,0,0-.22-.54.7.7,0,0,0-.52-.23.75.75,0,0,0-.55.23.77.77,0,0,0-.22.54.73.73,0,0,0,.22.52A.74.74,0,0,0,100.09,12.25Z"/><path class="cls-3" d="M102.12,12.25a.72.72,0,0,0,.54-.22.73.73,0,0,0,.22-.52.77.77,0,0,0-.22-.54.76.76,0,0,0-1.29.54.69.69,0,0,0,.22.52A.71.71,0,0,0,102.12,12.25Z"/><path class="cls-3" d="M109.91,10.58a.83.83,0,0,0,.62-.27.88.88,0,0,0-1.25-1.24.87.87,0,0,0,0,1.24A.83.83,0,0,0,109.91,10.58Z"/><path class="cls-3" d="M111.59,11.94a2.07,2.07,0,0,0-.66-.55,1.87,1.87,0,0,0-.9-.21,2.18,2.18,0,0,0-.79.14,1.86,1.86,0,0,0-1.15,1.76,2.06,2.06,0,0,0,.34,1.23,1.36,1.36,0,0,0,1.12.51l1.47,0a.77.77,0,0,1-.14.52.87.87,0,0,1-.7.22h-3.25a1.39,1.39,0,0,1-.67-.17.64.64,0,0,1-.31-.63V13.2h-1.18v1.55a1.24,1.24,0,0,1-.13.65q-.14.21-.6.21H98.59a1,1,0,0,1-.66-.19.92.92,0,0,1-.2-.67V13.2H96.58v1.73A2.07,2.07,0,0,0,97,16.3a1.52,1.52,0,0,0,1.23.48h6.06a1.52,1.52,0,0,0,1.1-.42,1.73,1.73,0,0,0,.71.34,4.6,4.6,0,0,0,.84.08h3.43a1.54,1.54,0,0,0,1.33-.7,2.17,2.17,0,0,0,.33-.74,3.68,3.68,0,0,0,.1-.89v-.86a2.89,2.89,0,0,0-.13-.88A2.56,2.56,0,0,0,111.59,11.94Zm-1.8,1.73a1.47,1.47,0,0,1-.49-.12.39.39,0,0,1-.25-.41.73.73,0,0,1,.86-.78.81.81,0,0,1,.46.12,1.22,1.22,0,0,1,.34.3,1.53,1.53,0,0,1,.23.44,1.73,1.73,0,0,1,.08.49Z"/><path class="cls-3" d="M116.31,18a.76.76,0,0,0-.54.21.74.74,0,0,0-.22.52.78.78,0,0,0,.22.55.73.73,0,0,0,.54.22.69.69,0,0,0,.53-.22.74.74,0,0,0,.22-.55.7.7,0,0,0-.22-.52A.72.72,0,0,0,116.31,18Z"/><path class="cls-3" d="M118.6,14.75a1.87,1.87,0,0,1,0,.34.54.54,0,0,1-.11.27.75.75,0,0,1-.26.18,1.44,1.44,0,0,1-.46.07H116a1.08,1.08,0,0,1-.64-.17c-.16-.11-.24-.36-.24-.74V9.45h-1.14V14.9a1.83,1.83,0,0,0,.51,1.44,2.07,2.07,0,0,0,1.39.44h2.25a1.58,1.58,0,0,0,1.28-.5,2.11,2.11,0,0,0,.41-1.35V13.2H118.6Z"/><path class="cls-3" d="M118.25,18a.77.77,0,0,0-.55.21.7.7,0,0,0-.22.52.75.75,0,0,0,.77.77.7.7,0,0,0,.52-.22.78.78,0,0,0,.22-.55.74.74,0,0,0-.22-.52A.73.73,0,0,0,118.25,18Z"/><path class="cls-3" d="M122.33,16.86a1.47,1.47,0,0,1-.52,1.2,2.41,2.41,0,0,1-1.57.44H120l.2,1.17.51,0a2.84,2.84,0,0,0,1.19-.24,2.49,2.49,0,0,0,.91-.65,3,3,0,0,0,.57-1,3.53,3.53,0,0,0,.2-1.23V13.2h-1.2Z"/><path class="cls-3" d="M130.32,14.63a2.23,2.23,0,0,0-.43-.65l-2.56-2.72-.77.78,2.58,2.72a.64.64,0,0,1,.19.44.37.37,0,0,1-.13.29.56.56,0,0,1-.41.13H125l.15,1.16h3.57a1.66,1.66,0,0,0,1.27-.44,1.4,1.4,0,0,0,.43-1A1.84,1.84,0,0,0,130.32,14.63Z"/></svg>