<svg id="Layer_1" data-name="Layer 1" xmlns="http://www.w3.org/2000/svg" viewBox="0 0 139.95 53.78"><defs><style>.cls-1{fill:#f39200;}.cls-2{fill:#04162d;}.cls-3{fill:#fff;}</style></defs><path class="cls-1" d="M134.74,53.69H5.14c-2.7,0-4.89-2.85-4.89-6.34V6.42C.25,2.93,2.44.09,5.14.09h129.6c2.69,0,5,2.84,5,6.33V47.35c0,3.49-2.27,6.34-5,6.34Z"/><path class="cls-2" d="M138.7,47.35c0,2.83-1.77,5.13-4,5.13H5.14c-2.19,0-4-2.3-4-5.13V6.42c0-2.83,1.78-5.14,4-5.14h129.6c2.19,0,4,2.31,4,5.14V47.35Z"/><path class="cls-3" d="M62.78,16.74a2.62,2.62,0,0,1-.8-.11,1.1,1.1,0,0,1-.51-.39,1.32,1.32,0,0,1-.3.28,2.29,2.29,0,0,1-.31.16,1.28,1.28,0,0,1-.3.07l-.25,0a1.81,1.81,0,0,1-.66-.15,8.85,8.85,0,0,1-.83-.35l-.9-.46c-.31-.17-.61-.32-.9-.46V20H56V14.85l1.09-.66.87.42c0-.19.08-.38.13-.57a3.58,3.58,0,0,1,.19-.55A3.62,3.62,0,0,1,58.5,13a1.67,1.67,0,0,1,.36-.39,1.41,1.41,0,0,1,.47-.25,1.61,1.61,0,0,1,.56-.08h0a2,2,0,0,1,.86.18,2,2,0,0,1,1,1.24,2.71,2.71,0,0,1,.13.86v.17s0,.1,0,.15a.61.61,0,0,0,.12.39.92.92,0,0,0,.25.23,1.08,1.08,0,0,0,.28.11l.22,0H63v1.09Zm-2.47-1.06h.16a.48.48,0,0,0,.21-.11.84.84,0,0,0,.18-.33,1.9,1.9,0,0,0,.08-.66,1,1,0,0,0,0-.15c0-.08,0-.16,0-.25a1.92,1.92,0,0,0-.11-.27,1.2,1.2,0,0,0-.18-.26.93.93,0,0,0-.27-.19.84.84,0,0,0-.37-.07,1.2,1.2,0,0,0-.33,0,.61.61,0,0,0-.28.24,1.76,1.76,0,0,0-.24.53,8.74,8.74,0,0,0-.21.94l.41.21.39.17.34.12A1,1,0,0,0,60.31,15.68Z"/><path class="cls-3" d="M68.3,15.65v1.09h-.8a2.43,2.43,0,0,1-.79-.12,1.39,1.39,0,0,1-.57-.36,1.89,1.89,0,0,1-.66.35,2.67,2.67,0,0,1-.88.13H62.8V15.65h1.8a1.54,1.54,0,0,0,.53-.07.71.71,0,0,0,.3-.16.52.52,0,0,0,.13-.21,1,1,0,0,0,0-.23V13.29h1.08v1.65a.62.62,0,0,0,.06.29.69.69,0,0,0,.13.2.66.66,0,0,0,.17.12l.19.06.17,0h.91ZM64.22,19.4l-.79-.8.78-.81.8.81Zm1.9,0-.79-.8.78-.81.8.81Z"/><path class="cls-3" d="M71,12.36a1.84,1.84,0,0,1,.8.16,2,2,0,0,1,.6.43,1.93,131c2a.93,0,0,1,.5,1.31,2.16,2.16,0,0,1-.12.76,2.52,2.52,0,0,1-.35.61h1.35v1.09h-.42l-.65,0-.65-.06-.6-.09-.51-.11a7.51,7.51,0,0,1-1,.2,9.68,9.68,0,0,1-1.29.08h-.56V15.65h1.38a2.16,2.16,0,0,1-.38-.62,1.79,1.79,0,0,1-.09-.35,1.7,1.7,0,0,1,0-.4,1.81,1.81,0,0,1,.16-.73,2.21,2.21,0,0,1,.44-.61A2.11,2.11,0,0,1,71,12.36Zm-1.12-1.07-.79-.8.77-.8.81.8Zm.11,3v.06a.86.86,0,0,0,.07.36.84.84,0,0,0,.19.31,1.5,1.5,0,0,0,.31.24,2.43,2.43,0,0,0,.4.18,1.91,1.91,0,0,0,.38-.18,1.19,1.19,0,0,0,.31-.23.94.94,0,0,0,.19-.32,1.08,1.08,0,0,0,.08-.42.6.6,0,0,0-.08-.28,1.33,1.33,0,0,0-.21-.26,1.21,1.21,0,0,0-.3-.2.78.78,0,0,0-.33-.07,1.21,1.21,0,0,0-.38.06,1.13,1.13,0,0,0-.32.19.78.78,0,0,0-.22.26A.58.58,0,0,0,70,14.26Zm1.89-3-.79-.8.78-.8.81.8Z"/><path class="cls-3" d="M79.08,15.65v1.09h-.79a2.39,2.39,0,0,1-.79-.12,1.43,1.43,0,0,1-.58-.36,1.76,1.76,0,0,1-.65.35,2.67,2.67,0,0,1-.88.13h-1.8V15.65h1.8a1.54,1.54,0,0,0,.53-.07.71.71,0,0,0,.3-.16.52.52,0,0,0,.13-.21,1,1,0,0,0,0-.23V13.29h1.08v1.65a.62.62,0,0,0,.06.29.53.53,0,0,0,.13.2.66.66,0,0,0,.17.12l.19.06.17,0h.9Zm-3.77-3.73-.78-.8.77-.81.81.81Zm2,0-.79-.8.78-.81.81.81Z"/><path class="cls-3" d="M78.84,15.65h.63a1.78,1.78,0,0,0,.51-.06.61.61,0,0,0,.31-.16.61.61,0,0,0,.15-.26,1.78,1.78,0,0,0,0-.35V13.29h1.09v1.5a.86.86,0,0,0,.21.65,1,1,0,0,0,.68.21l.2,0a.45.45,0,0,0,.23-.11.62.62,0,0,0,.19-.25.89.89,0,0,0,.08-.43V13.29h1.09v1.5a.86.86,0,0,0,.22.66,1,1,0,0,0,.68.2.86.86,0,0,0,.27-.05.53.53,0,0,0,.23-.13.94.94,0,0,0,.18-.25,1,1,0,0,0,.07-.38V13.29H87v1.55a.75.75,0,0,0,.25.62,1.24,1.24,0,0,0,.74.19h.52v1.09H88a2.69,2.69,0,0,1-.89-.13,1.56,1.56,0,0,1-.65-.38,1.5,1.5,0,0,1-.58.38,2,2,0,0,1-.72.13,2.31,2.31,0,0,1-.82-.13,1.73,1.73,0,0,1-.62-.38,2,2,0,0,1-.58.37,1.73,1.73,0,0,1-.65.14h0a2.2,2.2,0,0,1-.8-.13,2,2,0,0,1-.61-.36,1.85,1.85,0,0,1-.66.37,3.06,3.06,0,0,1-.9.12h-.63Z"/><path class="cls-3" d="M91.74,12.5a2,2,0,0,1,.88.19,1.72,1.72,0,0,1,.62.51,2.2,2.2,0,0,1,.38.73,3.15,3.15,0,0,1,.12.87,3.55,3.55,0,0,1-.09.86,2.09,2.09,0,0,1-.23.6,1.2,1.2,0,0,1-.31.38,1.4,1.4,0,0,1-.36.22,1.54,1.54,0,0,1-.35.1l-.28,0a2.34,2.34,0,0,1-.47-.05,3,3,0,0,1-.46-.14,4.9,4.9,0,0,1-.48-.22l-.56-.29a1.44,1.44,0,0,1-.48.35,1.42,1.42,0,0,1-.55.11h-.77V15.65h.74a.33.33,0,0,0,.22-.08.69.69,0,0,0,.17-.23,1.72,1.72,0,0,0,.14-.33c0-.12.08-.26.12-.41s.09-.31.15-.47a2.53,2.53,0,0,1,.19-.48,2.13,2.13,0,0,1,.26-.44,1.75,1.75,0,0,1,.35-.37,1.56,1.56,0,0,1,.46-.25A1.8,1.8,0,0,1,91.74,12.5Zm.38,3.39.15,0a.31.31,0,0,0,.21-.11.75.75,0,0,0,.18-.31,2.15,2.15,0,0,0,.08-.65,1.1,1.1,0,0,0,0-.16,1.29,1.29,0,0,0-.06-.25,1.53,1.53,0,0,0-.11-.27.93.93,0,0,0-.18-.26.77.77,0,0,0-.27-.19.84.84,0,0,0-.37-.08.78.78,0,0,0-.35.08,1,1,0,0,0-.25.22,1.69,1.69,0,0,0-.19.32c0,.12-.1.24-.14.36s-.08.26-.11.38-.07.25-.11.35c.13.08.27.15.41.22a3,3,0,0,0,.41.18,3.57,3.57,0,0,0,.38.14A1.39,1.39,0,0,0,92.12,15.89Z"/><path class="cls-3" d="M108.51,15.65v1.09h-.37l-.37,0a2.22,2.22,0,0,1-.37-.09,2.17,2.17,0,0,1-.35-.15,1.33,1.33,0,0,1-.3-.23,2.18,2.18,0,0,1-1.53.5H99.88a1.72,1.72,0,0,1-.68-.13,1.8,1.8,0,0,1-.58-.35,2.4,2.4,0,0,1-.21-.23,1.42,1.42,0,0,1-.19-.32,1.65,1.65,0,0,1-.14-.41,2.15,2.15,0,0,1-.06-.53,2.8,2.8,0,0,1,.06-.55c0-.2.07-.39.11-.58s.08-.33.12-.46.07-.22.08-.25l.52.17.52.16-.09.29c0,.13-.07.26-.1.41l-.09.44a2.73,2.73,0,0,0,0,.37,1,1,0,0,0,.09.48.78.78,0,0,0,.23.27.66.66,0,0,0,.25.1l.2,0h5.3a1.75,1.75,0,0,0,.58-.08.82.82,0,0,0,.3-.19.43.43,0,0,0,.11-.24,1.68,1.68,0,0,0,0-.2V13.29h1.09v1.63a.64.64,0,0,0,.35.61,1,1,0,0,0,.28.1l.22,0Zm-6.72-2.82L101,12l.77-.81.81.81Zm2,0L103,12l.77-.81.81.81Z"/><path class="cls-3" d="M108.3,16.74V15.65h2a4.47,4.47,0,0,0,.81-.06,2.22,2.22,0,0,0,.48-.16.73.73,0,0,0,.26-.22.77.77,0,0,0,.1-.23h-.63a4,4,0,0,1-.88-.09,2,2,0,0,1-.71-.29,1.4,1.4,0,0,1-.47-.55,1.82,1.82,0,0,1-.17-.85,2,2,0,0,1,.15-.77,2,2,0,0,1,.41-.64,2.13,2.13,0,0,1,.63-.43,1.78,1.78,0,0,1,.7-.13h.09a2.06,2.06,0,0,1,.69.14,1.79,1.79,0,0,1,.51.33,1.6,1.6,0,0,1,.36.49,2.72,2.72,0,0,1,.24.58,3.56,3.56,0,0,1,.13.65c0,.23,0,.45.05.68v.68a2,2,0,0,1-.11.67,1.63,1.63,0,0,1-.3.51,1.73,1.73,0,0,1-.44.36,3,3,0,0,1-.57.25,4.26,4.26,0,0,1-.64.13,5.22,5.22,0,0,1-.69,0Zm2.76-4.42h-.12l-.28,0a.85.85,0,0,0-.28.15.74.74,0,0,0-.21.28,1,1,0,0,0-.08.41.56.56,0,0,0,.12.38.7.7,0,0,0,.28.23,1.25,1.25,0,0,0,.39.11l.43,0H112c0-.15,0-.32,0-.49a1.71,1.71,0,0,0-.1-.51,1,1,0,0,0-.26-.42A.85.85,0,0,0,111.06,12.32Zm-.85-3.05.83-.84.85.85-.84.84Z"/><path class="cls-3" d="M116.64,16.74a4.59,4.59,0,0,1-.89-.07,2,2,0,0,1-.62-.19,1.35,1.35,0,0,1-.41-.33,1.53,1.53,0,0,1-.23-.46,2.68,2.68,0,0,1-.1-.6c0-.22,0-.47,0-.74V9.55h1.1v4.8a6.44,6.44,0,0,0,0,.67.76.76,0,0,0,.15.4.59.59,0,0,0,.35.18,3.69,3.69,0,0,0,.66.05Z"/><path class="cls-3" d="M120.14,12.58a1.47,1.47,0,0,1,0,.17l.08.32c0,.13,0,.28.08.43s.06.32.08.47a3.87,3.87,0,0,1,.06.46,3,3,0,0,1,0,.39,2.09,2.09,0,0,1-.17.86,1.9,1.9,0,0,1-.42.6,1.75,1.75,0,0,1-.59.34,1.92,1.92,0,0,1-.66.12h-2.22V15.65h2.25l.19,0a.93.93,0,0,0,.26-.1.75.75,0,0,0,.21-.25,1,1,0,0,0,.1-.46c0-.07,0-.17,0-.28s0-.22,0-.35,0-.26-.07-.39-.06-.26-.08-.37,0-.22-.07-.32a1.89,1.89,0,0,1-.06-.21Zm-2.5,6.79-.79-.8.78-.81.8.81Zm1.9,0-.79-.8.78-.81.8.81Z"/><path class="cls-3" d="M124.75,16.51a3.51,3.51,0,0,1-.25,1.2,2.67,2.67,0,0,1-.6.92,2.62,2.62,0,0,1-.93.58,3.47,3.47,0,0,1-1.24.21h-.68V18.33h.68a3.18,3.18,0,0,0,.87-.11,1.36,1.36,0,0,0,.59-.33,1.39,1.39,0,0,0,.35-.59,3,3,0,0,0,.12-.89V13.29h1.09Z"/><path class="cls-3" d="M127.85,16.78a5.68,5.68,0,0,1-.59,0l-.31,0a2.17,2.17,0,0,1-.35-.07,2,2,0,0,1-.35-.11,2.07,2.07,0,0,1-.34-.15l-.47-.27.54-.95.47.27a2,2,0,0,0,.42.16,2.81,2.81,0,0,0,.53.08,3.46,3.46,0,0,0,.46,0h.21a2.25,2.25,0,0,0,.41,0,1.65,1.65,0,0,0,.47-.12.46.46,0,0,0,.19-.15.19.19,0,0,0,0-.08,1,1,0,0,0,0-.19,1.89,1.89,0,0,0-.22-.4l-.78-1.18-.46-.7c-.12-.17-.19-.29-.23-.35l-.07-.1-.3-.46.91-.6.3.46.07.1.23.35.47.7.78,1.18a3,3,0,0,1,.38.82,1.61,1.61,0,0,1,0,.37,1.13,1.13,0,0,1-.11.52,1.24,1.24,0,0,1-.59.63,2.45,2.45,0,0,1-.9.28l-.39,0Z"/><path class="cls-3" d="M73.23,40a12,12,0,0,1-2.18-.21c-.76-.14-1.4-.28-2-.42l-1-.28,1.13-4c.24.08.59.17,1,.29s1,.22,1.5.32a7.86,7.86,0,0,0,1.45.14,1.07,1.07,0,0,0,.39-.06c.14-.06.21-.14.21-.23a.71.71,0,0,0-.11-.32h0l-2.5-3.7c-.49-.73-.73-1.09-.72-1.09l3.17-2.07s1.06,1.61,3.18,4.75a.76.76,0,0,1,.12.19,13.33,13.33,0,0,0,.91,1.27c.6.75,1,1.13,1.36,1.13h.49v4.22h-.9a4,4,0,0,1-2.54-1,4,4,0,0,1-.74.53A4.72,4.72,0,0,1,73.23,40Z"/><path class="cls-3" d="M83.09,39.88H79V35.66h4.11a.85.85,0,0,0,.46-.08.32.32,0,0,0,.12-.28,1.33,1.33,0,0,0,0-.32l-.46-2.4,3.66-1.11.52,2.81a7.26,7.26,0,0,1,.14,1.33,5.42,5.42,0,0,1-.31,1.77,3.14,3.14,0,0,1-.52,1A3.8,3.8,0,0,1,85,39.63,6.11,6.11,0,0,1,83.09,39.88ZM81.76,45l-2-2,2-2,2,2Zm4.34,0-2-2,2-2,2,2Z"/><path class="cls-3" d="M90.86,40.65c.76,0,1.39,0,1.89-.07a2.77,2.77,0,0,0,1.07-.24.57.57,0,0,0,.36-.44h-.79a5,5,0,0,1-2.23-.56,4.08,4.08,0,0,1-1.61-1.5,4.43,4.43,0,0,1-.6-2.36,6.54,6.54,0,0,1,.44-2.56,4.53,4.53,0,0,1,1.12-1.61A4.33,4.33,0,0,1,92,30.47a4.75,4.75,0,0,1,1.42-.24,4.56,4.56,0,0,1,3.41,1.49,5.47,5.47,0,0,1,1.34,3.76v3.46a6.08,6.08,0,0,1-.37,2.21,5.21,5.21,0,0,1-.92,1.57,7.36,7.36,0,0,1-1.11,1.07,5.26,5.26,0,0,1-.91.49,7,7,0,0,1-1.65.42,15.94,15.94,0,0,1-2.43.15h-1v-4.2Zm2.22-5h1.43v-.88a1,1,0,0,0-.32-.73,1.1,1.1,0,0,0-.77-.29,1.07,1.07,0,0,0-.76.29,1,1,0,0,0-.31.73,2,2,0,0,0,.05.43.63.63,0,0,0,.21.33A.76.76,0,0,0,93.08,35.67Z"/><path class="cls-3" d="M99.51,44.87h-.9V40.64h.9a2.83,2.83,0,0,0,2.18-.67,3.57,3.57,0,0,0,.6-2.28v-5h3.79v5a10.7,10.7,0,0,1-.4,2.94,5.51,5.51,0,0,1-1.15,2.27,5.3,5.3,0,0,1-2.19,1.5A8,8,0,0,1,99.51,44.87Z"/><path class="cls-3" d="M112.29,40a11.88,11.88,0,0,1-2.17-.21q-1.14-.21-2-.42l-1-.28,1.13-4c.23.08.58.17,1,.29s1,.22,1.5.32a7.94,7.94,0,0,0,1.45.14,1.07,1.07,0,0,0,.39-.06c.14-.06.21-.14.21-.23a.61.61,0,0,0-.11-.32h0l-2.5-3.7c-.48-.73-.72-1.09-.71-1.09l3.17-2.07s1.06,1.61,3.18,4.75l.12.19a13.33,13.33,0,0,0,.91,1.27c.59.75,1,1.13,1.36,1.13h.49v4.22h-.9a4,4,0,0,1-2.54-1,4.33,4.33,0,0,1-.74.53A4.73,4.73,0,0,1,112.29,40Z"/><path class="cls-3" d="M120.63,39.88h-2.31V35.66h2.31a.85.85,0,0,0,.46-.08.32.32,0,0,0,.12-.28,1.33,1.33,0,0,0,0-.32l-.46-2.4,3.66-1.11.52,2.81a7.26,7.26,0,0,1,.14,1.33,5.42,5.42,0,0,1-.31,1.77,3.14,3.14,0,0,1-.52,1,3.85,3.85,0,0,1-1.71,1.25A6.11,6.11,0,0,1,120.63,39.88Zm1.25-9.72L119.73,28l2.15-2.17L124.05,28Z"/><path class="cls-3" d="M130.24,39.91h-3.79V26.12h3.79Z"/><path class="cls-1" d="M29.64,21.24h9.22c.12,0,.16,0,.16.15,0,4.46,0,8.93,0,13.39A2.3,2.3,0,0,1,37.46,37a2.06,2.06,0,0,1-.65.11H35.39c-.11,0-.15,0-.15.14,0,1.52,0,3,0,4.55a2.1,2.1,0,0,1-4.2,0c0-1.48,0-3,0-4.44v-.1c0-.07,0-.1-.1-.1H28.33c-.09,0-.09,0-.09.11v4.51a2.1,2.1,0,0,1-4.18.32,2.3,2.3,0,0,1,0-.37c0-1.47,0-2.94,0-4.42,0-.13,0-.15-.16-.15H22.57a2.27,2.27,0,0,1-2.29-2c0-.12,0-.24,0-.36V21.39c0-.12,0-.15.15-.15Z"/><path class="cls-1" d="M19.48,27.38v4.29A2.06,2.06,0,0,1,19,33a2.1,2.1,0,0,1-3.73-1,1.51,1.51,0,0,1,0-.3V23a2.1,2.1,0,0,1,4.19-.17c0,.14,0,.28,0,.42C19.49,24.62,19.48,26,19.48,27.38Z"/><path class="cls-1" d="M39.8,27.35V23.06a2.14,2.14,0,0,1,.38-1.28,2.11,2.11,0,0,1,3.8.84,2.8,2.8,0,0,1,0,.4V31.7a2.11,2.11,0,0,1-4.17.45,2.89,2.89,0,0,1,0-.5Z"/><path class="cls-1" d="M39,19.57a8,8,0,0,0-1.21-3.41A9.11,9.11,0,0,0,34.34,13c-.08,0-.09-.07-.05-.16.25-.43.49-.86.73-1.3l.69-1.24a.32.32,0,0,0,0-.35.29.29,0,0,0-.3-.12.35.35,0,0,0-.23.2L33.76,12.6c0,.08-.08.1-.17.06a10,10,0,0,0-4.83-.77,10.25,10.25,0,0,0-3.08.77c-.08,0-.11,0-.15-.05l-.93-1.68L24.09,10a.29.29,0,0,0-.38-.14.3.3,0,0,0-.18.34,1,1,0,0,0,.07.15c.46.82.91,1.65,1.38,2.48.06.1,0,.14-.06.2A9,9,0,0,0,22.44,15a8.16,8.16,0,0,0-2.17,5.39c0,.12,0,.15.14.15H38.93c.07,0,.09,0,.09-.09A7.91,7.91,0,0,0,39,19.57Zm-13.65-2.5a.78.78,0,0,1-.77-.8.76.76,0,0,1,.78-.76.78.78,0,1,1,0,1.56Zm8.66,0a.79.79,0,0,1-.78-.78.77.77,0,0,1,.77-.78.76.76,0,0,1,.79.77A.78.78,0,0,1,34,17.07Z"/></svg>